<?xml version="1.0" encoding="UTF-8"?>
<svg xmlns="http://www.w3.org/2000/svg" xmlns:xlink="http://www.w3.org/1999/xlink" width="1200pt" height="1200pt" viewBox="0 0 1200 1200" version="1.1">
<g id="surface1">
<path style=" stroke:none;fill-rule:nonzero;fill:rgb(0%,0%,0%);fill-opacity:1;" d="M 719.648438 288.648438 C 719.292969 289.007812 719 331.949219 719 384.050781 C 719 469.550781 718.84375 478.859375 717.398438 479.398438 C 716.519531 479.730469 679.300781 480 634.699219 480 C 557 480 532.507812 480.621094 516 483.019531 C 500.398438 485.28125 475.65625 490.453125 472.699219 492.070312 C 471.765625 492.582031 470.101562 493 469 493 C 467.898438 493 466.214844 493.40625 465.25 493.898438 C 464.296875 494.390625 461 495.59375 458 496.550781 C 455 497.503906 452.066406 498.6875 451.550781 499.148438 C 451.039062 499.609375 450 500 449.300781 500 C 447.652344 500 436.601562 504.921875 426.5 510.15625 C 422.101562 512.433594 417.488281 514.796875 416.25 515.398438 C 415.050781 515.988281 414 516.851562 414 517.25 C 414 517.640625 413.449219 518 412.851562 518 C 412.222656 518 410.199219 519.136719 408.398438 520.5 C 406.601562 521.863281 404.667969 523 404.148438 523 C 403.578125 523 403.058594 523.300781 402.851562 523.75 C 402.65625 524.164062 399.101562 527.066406 394.898438 530.238281 C 383.601562 538.773438 368.535156 553.746094 361.53125 563.398438 C 360.441406 564.898438 358.976562 566.757812 358.367188 567.398438 C 356.390625 569.5 348 582.769531 348 583.800781 C 348 584.398438 347.679688 584.945312 347.199219 585.167969 C 346.476562 585.496094 341.746094 594.898438 338.578125 602.300781 C 334.726562 611.300781 334.175781 612.71875 333.070312 616.5 C 332.425781 618.699219 331.53125 621.398438 331.078125 622.5 C 328.617188 628.507812 323.75 651.398438 322.367188 663.5 C 321.3125 672.691406 321.316406 708.5 322.367188 718 C 322.824219 722.101562 323.910156 728.671875 324.765625 732.5 C 326.148438 738.679688 326.953125 741.898438 330.003906 753.5 C 334.925781 772.199219 348.472656 797.359375 362.742188 814.300781 C 366.199219 818.398438 381.742188 833.910156 385 836.507812 C 386.375 837.605469 389.300781 839.851562 391.5 841.5 C 393.699219 843.148438 395.746094 844.769531 396.046875 845.101562 C 396.859375 845.992188 403.300781 850.40625 405.5 851.578125 C 409.199219 853.554688 412.496094 855.496094 413 856 C 414.820312 857.820312 431.699219 866.097656 441.800781 870.121094 C 442.972656 870.589844 445.050781 871.421875 446.25 871.898438 C 447.511719 872.402344 450.699219 873.546875 453.5 874.5 C 456.300781 875.453125 459.378906 876.550781 460.5 877 C 461.601562 877.441406 464.300781 878.273438 466.5 878.851562 C 468.683594 879.421875 473 880.582031 476 881.398438 C 479 882.21875 483.773438 883.355469 486.5 883.898438 C 489.300781 884.460938 492.820312 885.183594 494.5 885.542969 C 503.878906 887.546875 522.601562 889.75 541 891.011719 C 555.699219 892.019531 908.820312 892.402344 911.398438 891.414062 C 912.855469 890.855469 913 863.300781 913 589.398438 L 913 288 L 816.648438 288 C 763.648438 288 720.007812 288.292969 719.648438 288.648438 Z M 717.300781 608.246094 C 718.878906 609.410156 718.980469 614.898438 718.75 685.5 L 718.5 761.5 L 663.5 761.75 C 617.800781 761.957031 606.554688 761.730469 597 760.410156 C 584.601562 758.699219 577.492188 757.246094 574.699219 755.851562 C 573.800781 755.398438 572.433594 755 571.800781 755 C 570.171875 755 556.300781 748.195312 553.800781 746.171875 C 547.398438 740.988281 544.421875 738.355469 543.753906 737.300781 C 543.324219 736.613281 542.398438 735.5 541.601562 734.699219 C 539.199219 732.300781 533 722.136719 533 720.601562 C 533 719.800781 532.53125 718.808594 532 718.476562 C 529.464844 716.898438 526.070312 697.398438 526.046875 684.300781 C 526.015625 665.800781 530.359375 650.589844 539.128906 638.5 C 545.65625 629.5 554.726562 621.890625 563.601562 617.964844 C 566.300781 616.773438 569.171875 615.457031 570 615.035156 C 573.726562 613.136719 593.5 609.070312 603 608.25 C 620.300781 606.753906 715.269531 606.75 717.300781 608.246094 "/>
</g>
</svg>
