<?xml version="1.0" standalone="no"?>
<!DOCTYPE svg PUBLIC "-//W3C//DTD SVG 20010904//EN"
 "http://www.w3.org/TR/2001/REC-SVG-20010904/DTD/svg10.dtd">
<svg version="1.0" xmlns="http://www.w3.org/2000/svg"
 width="1024.000000pt" height="1024.000000pt" viewBox="0 0 1024.000000 1024.000000"
 preserveAspectRatio="xMidYMid meet">

<g transform="translate(0.000000,1024.000000) scale(0.100000,-0.100000)"
fill="#000000" stroke="none">
<path d="M4502 9182 c-24 -20 -33 -36 -34 -59 -1 -34 24 -80 48 -90 23 -9 81
22 89 47 10 32 -2 83 -26 108 -26 28 -37 27 -77 -6z"/>
<path d="M4866 9042 c7 -36 -16 -58 -45 -43 -26 14 -31 14 -31 -3 0 -21 39
-46 71 -46 52 0 79 69 41 103 -28 26 -42 21 -36 -11z"/>
<path d="M5940 9051 c27 -51 -3 -96 -57 -88 -24 4 -36 2 -40 -9 -8 -22 5 -60
33 -93 54 -65 157 -22 164 69 5 55 -1 73 -34 106 -38 38 -84 48 -66 15z"/>
<path d="M3484 9025 c-3 -8 -1 -30 6 -50 12 -36 6 -90 -11 -100 -5 -4 -6 2 -2
11 5 15 0 14 -33 -7 -22 -13 -54 -24 -74 -24 -29 0 -36 -4 -38 -23 -6 -43 34
-105 95 -144 31 -21 66 -38 77 -38 12 0 48 15 81 33 46 26 65 43 83 78 32 61
27 134 -14 191 -45 64 -156 112 -170 73z"/>
<path d="M6328 9033 c7 -3 16 -2 19 1 4 3 -2 6 -13 5 -11 0 -14 -3 -6 -6z"/>
<path d="M6403 9019 c47 -25 88 -86 94 -142 7 -63 -34 -148 -85 -173 -43 -22
-145 -25 -164 -6 -7 7 -18 12 -26 12 -8 0 -27 9 -43 21 l-30 21 7 -29 c9 -38
31 -71 67 -102 49 -42 69 -50 127 -50 103 -1 192 64 223 160 21 63 21 72 2
135 -18 62 -76 131 -129 155 -57 26 -93 24 -43 -2z"/>
<path d="M5267 9023 c-4 -3 -7 -15 -7 -25 0 -15 5 -18 23 -12 30 9 32 11 17
29 -14 16 -23 19 -33 8z"/>
<path d="M5427 9024 c-17 -18 -6 -35 21 -32 16 2 27 9 27 18 0 16 -36 26 -48
14z"/>
<path d="M6227 9005 c-20 -14 -44 -39 -53 -56 -22 -44 -12 -45 17 -2 13 21 42
48 64 60 22 12 33 23 25 23 -9 0 -32 -11 -53 -25z"/>
<path d="M5520 9000 c0 -5 9 -10 20 -10 11 0 20 5 20 10 0 6 -9 10 -20 10 -11
0 -20 -4 -20 -10z"/>
<path d="M5078 8945 c-4 -19 -1 -25 12 -25 13 0 17 6 13 20 -8 31 -20 33 -25
5z"/>
<path d="M5686 8954 c-4 -9 -4 -19 -1 -22 3 -3 11 0 17 6 9 9 9 15 1 23 -7 7
-12 5 -17 -7z"/>
<path d="M6288 8882 c-51 -31 -43 -100 16 -131 29 -16 52 -9 89 24 28 27 34
56 17 99 -8 23 -15 26 -52 25 -24 0 -55 -8 -70 -17z"/>
<path d="M6236 8853 c-6 -14 -5 -15 5 -6 7 7 10 15 7 18 -3 3 -9 -2 -12 -12z"/>
<path d="M5232 8846 c-210 -51 -366 -223 -447 -491 -15 -49 -30 -94 -32 -99
-12 -19 -23 24 -23 90 0 203 -69 338 -202 400 -54 25 -75 29 -148 29 -73 0
-92 -4 -138 -28 -104 -55 -173 -138 -201 -245 -7 -23 -16 -42 -20 -42 -5 0
-33 11 -63 25 -63 29 -170 34 -258 11 -30 -8 -56 -11 -58 -7 -7 19 -50 70 -83
99 -66 58 -122 76 -229 77 -109 0 -155 -17 -235 -87 -55 -48 -86 -107 -110
-205 -10 -40 -20 -73 -23 -73 -3 0 -32 13 -66 29 -80 37 -148 51 -256 51 -174
0 -299 -48 -406 -156 -129 -131 -193 -283 -202 -475 -3 -88 -1 -128 12 -171 9
-31 16 -59 16 -63 0 -3 -61 51 -135 121 -74 70 -149 137 -167 148 -40 26 -135
27 -188 3 l-35 -15 54 -1 c75 -1 140 -41 224 -136 77 -88 87 -112 35 -84 -15
8 -19 8 -14 0 12 -19 -8 -11 -49 19 -123 90 -140 100 -178 100 -53 0 -97 -21
-137 -66 -25 -29 -42 -39 -64 -39 -28 0 -31 -3 -34 -37 -6 -72 15 -119 81
-182 84 -79 103 -86 235 -83 l108 2 45 -35 c55 -43 124 -118 116 -127 -4 -3
-33 4 -64 17 -145 56 -168 62 -248 62 -197 0 -405 -129 -498 -309 -58 -112
-71 -163 -70 -288 1 -169 41 -268 162 -393 28 -29 51 -55 51 -57 0 -2 -22 -17
-48 -33 -156 -96 -245 -251 -245 -427 0 -121 59 -258 147 -344 20 -19 36 -38
36 -43 0 -4 -22 -19 -49 -32 -98 -50 -196 -196 -221 -331 -29 -152 50 -322
197 -430 35 -25 63 -49 63 -53 0 -5 -40 -36 -89 -70 -160 -111 -239 -233 -260
-403 -21 -165 27 -313 143 -436 97 -105 265 -193 367 -193 42 0 51 -9 67 -66
7 -23 24 -54 39 -69 37 -37 119 -89 166 -104 43 -14 42 -10 18 -146 -17 -93
-19 -98 -29 -72 -7 16 -12 34 -12 40 0 32 -53 117 -99 160 -75 70 -126 90
-220 85 -168 -8 -278 -105 -311 -274 -22 -112 30 -260 116 -330 118 -97 272
-96 403 2 67 50 91 84 117 164 l18 55 13 -88 c7 -49 22 -109 33 -134 26 -59
25 -63 -7 -64 -26 -1 -26 -1 7 -11 45 -13 57 -23 81 -69 26 -52 24 -79 -10
-116 -31 -34 -81 -54 -81 -33 0 10 -3 10 -14 1 -10 -8 -29 -9 -62 -4 -43 8
-50 12 -70 53 -19 37 -23 41 -24 21 0 -38 39 -109 74 -136 49 -37 88 -42 133
-15 62 38 82 61 100 116 l16 53 57 -44 c63 -48 86 -73 77 -82 -4 -3 -47 -12
-97 -19 -49 -7 -103 -20 -118 -28 -55 -28 -131 -107 -159 -164 -25 -50 -28
-68 -28 -153 0 -89 2 -99 37 -170 27 -54 52 -87 92 -122 88 -76 92 -77 394
-82 331 -7 265 -7 614 1 164 3 322 3 352 0 53 -7 55 -8 71 -50 19 -49 95 -127
170 -174 66 -41 139 -56 246 -50 75 5 95 10 157 43 66 34 104 69 193 174 14
17 24 33 21 36 -3 3 0 5 7 5 8 0 11 -8 8 -20 -3 -11 -2 -20 3 -20 13 0 38
-144 39 -227 1 -48 3 -53 28 -59 33 -9 56 18 50 58 -2 16 -1 28 3 28 4 0 7 17
8 38 1 31 -4 40 -30 57 -46 29 -60 91 -53 225 6 114 20 145 53 124 24 -15 62
-97 80 -177 17 -69 32 -88 32 -39 0 39 15 59 25 35 5 -10 10 -29 12 -42 2 -13
11 -33 19 -45 14 -20 14 -20 14 2 0 13 -5 66 -12 119 l-12 96 28 23 c65 57
103 18 116 -118 5 -49 11 -92 13 -94 2 -3 7 25 9 61 4 44 12 73 24 86 15 17
19 18 26 4 5 -8 7 -18 5 -23 -3 -4 6 -8 19 -8 25 -2 49 -19 147 -102 78 -67
111 -82 185 -82 99 0 166 48 222 159 12 24 25 40 30 35 9 -10 30 -349 29 -481
0 -87 10 -115 49 -132 35 -16 88 11 101 52 5 18 12 194 15 391 3 235 9 363 16
370 16 16 97 -30 108 -63 11 -33 -3 -67 -31 -75 -20 -5 -20 -8 -14 -370 7
-382 10 -409 55 -459 51 -56 159 -74 220 -37 99 61 99 57 105 465 4 207 10
369 17 398 18 73 74 101 106 52 15 -23 15 -28 -5 -78 -31 -79 -35 -125 -16
-177 19 -48 21 -90 10 -185 -7 -57 -5 -63 20 -93 34 -41 67 -42 107 -2 28 29
30 33 23 88 -9 76 -10 250 -2 284 l7 28 33 -38 c19 -20 43 -53 55 -72 14 -24
46 -50 96 -79 92 -52 165 -63 250 -37 63 20 77 30 171 119 39 37 74 67 77 67
9 0 27 -150 37 -294 8 -128 8 -129 40 -158 35 -32 75 -36 109 -12 45 31 50 58
61 315 15 342 23 389 69 404 52 16 78 -35 68 -133 -9 -92 -27 -355 -29 -421
-2 -45 1 -56 20 -68 20 -13 23 -12 39 12 13 20 20 61 26 159 9 145 14 176 27
176 5 0 12 -11 15 -25 11 -43 96 -122 139 -130 118 -22 207 70 207 212 0 69
-3 79 -30 100 -13 10 -15 3 -15 -50 -1 -64 -18 -111 -58 -154 -29 -32 -90 -38
-157 -15 -45 15 -58 25 -73 55 -13 26 -16 41 -9 53 7 13 6 22 -4 32 -31 30 10
96 77 126 27 11 49 26 49 32 0 7 10 15 23 18 24 8 389 24 587 27 69 0 152 5
185 11 150 23 291 165 326 328 6 27 13 50 16 50 3 0 39 -17 81 -37 67 -34 84
-38 151 -38 42 0 92 3 112 8 54 11 142 95 180 173 29 59 31 70 26 132 -14 144
-89 235 -232 282 -38 12 -72 24 -74 26 -7 6 54 53 70 54 9 0 20 7 23 16 9 25
7 27 -11 13 -15 -13 -15 -12 -4 9 7 12 16 20 21 17 5 -3 12 0 16 6 5 8 3 9 -6
4 -8 -5 -11 -3 -8 6 3 8 11 13 17 12 6 -2 11 9 11 25 0 26 15 61 22 52 76
-106 118 -131 218 -133 76 -2 117 20 166 87 25 36 29 49 29 111 0 60 -5 79
-34 134 -18 36 -40 72 -48 80 -14 13 -9 17 37 35 29 11 68 35 87 53 35 35 39
60 37 203 -1 25 1 37 3 28 6 -25 30 -22 36 3 5 19 11 21 42 16 23 -4 33 -2 29
5 -4 6 1 8 14 4 29 -10 133 35 195 84 95 76 139 170 140 296 0 41 -3 77 -6 81
-11 10 -34 -26 -52 -79 -9 -26 -36 -69 -59 -94 -35 -40 -45 -46 -61 -37 -13 8
-19 24 -21 53 -1 24 -6 59 -9 79 l-8 36 -11 -45 c-14 -55 -60 -90 -117 -90
-31 0 -48 8 -78 36 l-40 35 -27 -30 c-55 -63 -136 -62 -190 2 -24 28 -26 37
-21 92 4 45 3 55 -5 41 -6 -11 -12 -51 -14 -89 -3 -70 -12 -87 -45 -87 -14 0
-25 29 -33 93 -1 4 -5 7 -11 7 -5 1 -13 -16 -16 -36 -8 -48 -21 -55 -94 -57
-56 -1 -73 4 -78 22 -2 11 -16 20 -33 23 -16 3 -36 8 -45 12 -12 5 -20 -1 -29
-23 -14 -36 -37 -41 -42 -9 -4 29 -24 34 -31 7 -3 -11 -10 -18 -16 -14 -6 3
-11 0 -11 -7 -1 -23 -30 25 -30 49 0 26 -25 31 -34 7 -4 -9 -13 -14 -21 -10
-8 3 -15 1 -15 -4 0 -6 -9 -1 -20 10 -26 26 -100 22 -111 -6 -9 -26 -2 -34 27
-34 13 0 24 -4 24 -9 0 -5 13 -11 29 -14 16 -3 31 -13 34 -21 4 -11 -12 -8
-71 11 -42 14 -79 27 -80 29 -8 6 -8 72 1 118 7 42 20 62 84 132 82 90 109
107 196 123 65 12 951 17 982 5 15 -5 13 -1 -7 15 -15 12 -29 21 -31 19 -1 -2
-15 9 -30 24 -16 16 -33 25 -42 22 -11 -5 -13 -2 -9 10 3 9 1 17 -5 17 -6 1
-17 2 -23 3 -7 0 -13 7 -13 14 0 7 -7 17 -15 22 -10 7 -11 13 -4 18 5 4 9 25
8 47 -1 22 -3 49 -3 61 -1 11 -10 30 -21 42 -11 12 -20 27 -20 33 0 7 -3 10
-6 6 -4 -3 -19 0 -35 8 -45 24 -46 18 -2 -20 28 -24 43 -46 47 -70 8 -42 0
-61 -19 -45 -12 10 -25 8 -70 -10 -11 -4 -31 -12 -45 -17 -14 -5 -36 -7 -50
-3 -23 5 -25 10 -25 65 0 58 1 61 38 84 31 21 37 30 37 59 0 22 11 53 30 83
54 83 73 152 73 264 1 78 -4 111 -20 152 -31 78 -105 182 -168 236 l-56 49 42
41 c62 63 127 168 144 233 16 63 19 164 6 231 -6 29 -5 40 2 36 6 -4 8 0 5 8
-5 12 10 13 82 11 113 -4 161 9 210 58 43 43 80 115 80 155 0 29 -26 85 -39
85 -9 0 -24 -33 -42 -97 -21 -76 -77 -113 -169 -113 -38 0 -50 4 -50 15 0 8
-4 15 -9 15 -5 0 -14 14 -21 30 -7 17 -17 33 -23 37 -6 3 -7 1 -3 -5 4 -7 3
-12 -3 -12 -5 0 -14 -12 -19 -27 l-10 -28 -1 33 c-1 36 -23 51 -46 32 -11 -9
-15 -5 -21 24 -3 20 -3 51 0 70 9 45 64 126 104 151 17 11 31 25 32 31 0 6 16
60 36 120 20 60 39 137 42 172 15 187 -76 423 -213 550 -102 95 -212 131 -397
132 -88 0 -83 -6 -68 90 12 80 -5 193 -40 266 -21 42 -52 82 -98 126 -75 71
-116 94 -193 108 -123 24 -230 5 -302 -52 -21 -16 -40 -28 -43 -25 -3 2 0 24
5 48 18 75 13 160 -10 198 -21 35 -25 35 -43 -1 -17 -33 -49 -34 -66 -2 -24
43 -68 74 -107 74 -54 0 -115 -41 -144 -94 -13 -25 -30 -46 -38 -46 -9 0 -11
-7 -7 -22 3 -13 6 -29 6 -36 0 -7 4 -11 9 -8 5 3 14 -8 21 -24 14 -35 17 -36
42 -13 17 15 21 15 54 0 55 -26 82 -22 125 22 22 21 39 48 39 60 0 22 14 28
26 10 5 -8 9 -8 14 1 13 21 22 -24 11 -53 -13 -34 -68 -95 -102 -113 -31 -16
-115 -19 -151 -5 -13 5 -32 17 -44 27 -23 21 -67 104 -78 149 -14 55 -29 1
-23 -81 l5 -73 -51 20 c-29 12 -77 25 -107 30 -57 8 -90 34 -90 69 0 23 47 80
65 80 27 0 60 -21 83 -53 12 -17 22 -25 22 -17 0 21 -37 80 -55 86 -23 9 -18
23 30 80 25 29 58 77 74 107 34 64 56 180 48 248 -8 64 -46 142 -72 145 -19 3
-20 -2 -16 -89 3 -77 -1 -104 -20 -162 -29 -86 -74 -134 -179 -190 -72 -39
-78 -40 -170 -40 -99 0 -150 10 -186 35 -47 34 -134 231 -134 304 0 19 -4 37
-9 40 -11 7 -21 -43 -21 -105 0 -27 -5 -49 -10 -49 -6 0 -34 12 -63 27 -44 23
-65 27 -132 28 -81 0 -103 -8 -186 -67 -14 -9 -22 -5 -48 25 -66 74 -179 99
-261 57 -22 -11 -45 -20 -53 -20 -7 0 -33 28 -58 61 -89 124 -239 225 -380
254 -84 18 -204 18 -277 1z m320 -125 c76 -24 133 -64 192 -135 32 -38 41 -57
43 -90 1 -22 6 -77 12 -121 16 -118 4 -192 -46 -303 -27 -60 -42 -66 -18 -7
16 38 12 62 -6 35 -7 -11 -8 -8 -4 11 6 26 5 26 -62 32 -37 4 -89 7 -115 7
-26 0 -50 5 -53 10 -4 6 -2 9 3 8 6 -2 10 0 11 5 1 4 -1 7 -4 7 -3 0 -9 0 -15
0 -5 0 -10 -6 -10 -14 0 -8 -8 -13 -17 -12 -16 1 -18 -10 -18 -104 0 -58 -4
-111 -8 -117 -10 -16 -51 -17 -78 -3 -15 8 -19 22 -20 63 l-1 52 -12 -50 c-11
-48 -14 -50 -49 -53 -26 -2 -43 -12 -61 -33 -31 -36 -63 -40 -103 -11 -17 12
-41 22 -52 22 -12 0 -21 6 -21 15 0 8 -4 15 -9 15 -5 0 -7 -9 -4 -20 9 -35 -4
-22 -56 55 -110 164 -117 315 -24 502 60 120 161 204 298 250 60 19 224 11
307 -16z m-1037 -55 c52 -31 102 -100 97 -134 -2 -15 -9 -22 -17 -18 -18 6
-25 -15 -25 -74 0 -38 -6 -55 -26 -80 -35 -41 -102 -86 -145 -98 -41 -11 -113
8 -170 44 -46 29 -56 30 -61 7 -3 -15 -7 -13 -23 11 -31 46 -33 151 -5 207 46
89 103 139 183 160 57 15 143 3 192 -25z m-1084 -115 c43 -28 99 -81 85 -81
-4 0 -2 -9 4 -20 13 -25 2 -50 -12 -26 -5 9 -13 16 -19 16 -11 0 -8 -32 4 -41
10 -7 -2 -59 -13 -59 -5 0 -11 10 -13 23 -3 14 -5 8 -6 -15 -1 -48 -47 -101
-106 -124 -25 -9 -45 -21 -45 -25 0 -5 0 -11 0 -14 1 -16 -32 -36 -48 -29 -9
4 -37 6 -62 5 -36 -2 -49 2 -67 21 -71 76 -71 221 2 305 79 92 209 120 296 64z
m2723 -111 c26 -32 51 -103 42 -119 -3 -5 -9 -96 -12 -202 -4 -107 -10 -195
-15 -197 -5 -2 -9 -15 -9 -28 0 -17 -5 -24 -20 -24 -11 0 -23 7 -26 15 -10 25
-23 17 -28 -17 -3 -18 -7 -86 -10 -151 -5 -115 -5 -118 17 -126 12 -5 23 -5
25 0 2 5 12 9 22 9 11 0 20 9 23 23 2 12 5 3 6 -19 1 -36 -4 -46 -34 -73 -40
-35 -52 -37 -100 -17 -60 25 -60 23 -63 450 -4 425 -4 425 55 476 46 41 92 41
127 0z m423 -10 c93 -33 155 -111 139 -177 -6 -23 -10 -24 -44 -18 -20 4 -38
10 -40 15 -2 4 -19 29 -39 54 -27 35 -42 46 -62 45 -34 -1 -79 -28 -105 -63
-19 -26 -21 -39 -18 -179 3 -148 -11 -287 -29 -287 -5 0 -9 7 -9 16 0 22 -23
12 -35 -14 -5 -12 -13 -22 -17 -22 -5 0 -9 87 -10 193 -5 334 -2 349 67 404
68 55 118 63 202 33z m-2707 -22 c62 -14 150 -86 150 -122 0 -30 -73 -207
-101 -247 -40 -57 -139 -76 -229 -44 -23 8 -56 14 -73 12 -29 -2 -33 2 -54 55
-31 77 -32 160 -4 216 36 70 150 139 233 141 14 1 50 -4 78 -11z m-1015 -167
c67 -31 101 -55 153 -108 61 -62 110 -135 126 -188 5 -17 1 -21 -19 -23 -20
-1 -29 6 -45 37 -31 61 -41 58 -19 -6 38 -109 35 -221 -10 -335 -12 -32 -46
-54 -57 -37 -4 7 -9 8 -17 0 -7 -7 -16 -7 -30 1 -16 8 -23 7 -32 -6 -16 -21
-25 70 -25 255 0 155 4 149 -86 149 -39 0 -54 4 -54 14 0 22 -79 98 -98 94 -9
-2 -34 -29 -55 -60 -36 -55 -38 -56 -70 -48 -17 5 -48 6 -67 2 l-35 -8 2 -214
c2 -214 2 -215 25 -227 18 -10 19 -13 6 -13 -14 0 -18 -9 -18 -44 0 -42 -18
-73 -35 -58 -5 4 -5 -2 -1 -13 4 -11 8 -24 9 -30 2 -12 -63 -7 -79 6 -6 5 -13
6 -16 3 -8 -8 -84 84 -112 137 -74 135 -74 326 -1 487 32 69 131 172 203 210
98 52 188 72 299 67 59 -3 87 -11 158 -44z m1878 -55 c33 -30 43 -68 27 -105
-11 -28 -46 -51 -76 -51 -26 0 -74 56 -74 85 0 29 57 95 83 95 8 0 26 -11 40
-24z m2217 -65 c14 -27 13 -107 -2 -118 -21 -16 -60 -23 -78 -13 -22 12 -44
91 -36 125 6 23 11 25 56 25 39 0 52 -4 60 -19z m-231 -68 c34 -42 38 -61 17
-101 -41 -79 -103 -93 -143 -33 -39 59 -28 116 30 151 45 28 61 25 96 -17z
m-2275 -18 c37 -13 85 -35 105 -49 50 -35 94 -93 93 -125 0 -61 0 -61 -39 -61
-32 0 -45 8 -83 46 -70 71 -130 98 -220 98 -61 0 -84 -5 -125 -26 -112 -59
-161 -145 -157 -279 3 -127 101 -257 220 -295 35 -11 64 -24 65 -29 1 -6 -27
-14 -63 -19 -68 -9 -74 -7 -200 62 -8 5 -28 15 -45 23 -66 31 -117 196 -97
315 21 125 109 265 194 310 107 56 243 68 352 29z m395 -87 c26 -28 37 -83 21
-103 -7 -8 -25 -15 -41 -15 -32 0 -53 26 -62 77 -11 58 42 84 82 41z m-2244
-70 c3 -29 5 -98 3 -153 -3 -95 -4 -100 -25 -103 -23 -3 -23 -3 -23 146 0 82
3 152 7 155 19 19 32 3 38 -45z m765 33 c0 -5 -6 -14 -14 -20 -11 -9 -16 -9
-21 0 -4 6 -1 15 6 20 18 11 29 11 29 0z m4956 -6 c42 -17 110 -74 136 -113
23 -35 25 -166 3 -240 -19 -63 -52 -102 -159 -187 -77 -62 -113 -83 -85 -49
12 15 9 16 -26 10 -22 -3 -46 -5 -52 -6 -7 0 -13 -9 -13 -19 0 -16 -6 -19 -42
-15 -39 3 -40 2 -13 -6 25 -8 22 -9 -19 -5 -27 3 -68 5 -92 5 l-44 0 0 56 c0
37 -12 91 -35 162 l-35 106 39 82 c79 164 175 232 334 233 38 1 83 -5 103 -14z
m-5576 -136 c0 -91 -4 -138 -10 -134 -6 4 -10 62 -10 141 0 83 4 134 10 134 6
0 10 -54 10 -141z m4525 126 c147 -26 286 -111 385 -236 34 -43 37 -53 38
-115 1 -38 9 -94 17 -124 27 -101 20 -192 -27 -323 -18 -49 -25 -58 -52 -65
-27 -7 -33 -5 -44 16 -7 14 -10 33 -7 43 54 168 12 345 -110 478 -97 104 -253
163 -373 141 -177 -32 -324 -168 -368 -340 -51 -199 49 -396 251 -496 78 -38
81 -39 185 -38 98 1 112 3 188 36 45 20 79 32 76 27 -3 -5 0 -9 5 -9 6 0 11
-11 11 -25 0 -17 6 -25 18 -25 24 -1 -17 -32 -86 -66 -103 -52 -216 -64 -345
-40 -98 19 -169 50 -235 104 -30 24 -55 42 -57 40 -5 -6 63 -97 69 -91 3 4 6
0 6 -7 0 -7 8 -19 18 -27 9 -8 1 -6 -18 4 -19 10 -75 59 -126 109 -72 71 -99
107 -130 169 -36 73 -39 86 -42 181 -8 206 49 362 183 499 155 159 346 219
570 180z m-2890 -25 c79 -38 161 -164 122 -187 -8 -4 -22 -23 -31 -41 -29 -57
-85 -111 -125 -120 -20 -5 -67 -8 -106 -7 -39 2 -73 -2 -76 -7 -10 -15 -66 30
-90 72 -38 64 -8 184 62 248 66 60 170 78 244 42z m-786 -43 c37 -13 59 -54
60 -114 1 -25 -5 -35 -31 -51 -18 -11 -46 -24 -61 -27 -17 -5 -32 -17 -38 -31
-5 -14 -20 -29 -34 -34 -34 -13 -142 -13 -150 0 -4 6 -11 8 -16 5 -5 -3 -6 2
-2 11 9 25 -19 12 -33 -14 -28 -57 -33 61 -5 123 26 57 100 122 148 130 21 4
45 8 53 10 32 6 77 3 109 -8z m1327 -52 c14 -56 -65 -91 -88 -39 -11 23 -10
29 11 45 34 28 69 25 77 -6z m2884 10 c0 -8 -10 -25 -21 -36 l-21 -21 -27 26
c-22 23 -24 28 -11 36 25 16 80 12 80 -5z m-1944 -19 c9 -39 0 -88 -19 -100
-15 -9 -22 -7 -38 13 -10 13 -19 35 -19 49 0 53 64 86 76 38z m-102 -130 c20
-18 36 -41 36 -50 0 -28 -27 -71 -52 -83 -64 -32 -100 -27 -123 17 -24 46 -19
78 19 116 44 44 74 44 120 0z m-726 8 c27 -19 27 -27 2 -79 -19 -40 -53 -65
-86 -65 -9 0 -29 13 -45 30 -35 34 -33 58 9 103 30 31 84 37 120 11z m-383
-48 c9 -60 -2 -104 -37 -149 -58 -73 -97 -71 -48 2 16 24 32 59 36 77 3 19 10
37 15 40 5 3 6 16 3 29 -3 13 -3 29 1 34 13 22 24 10 30 -33z m2665 -12 c94
-51 182 -180 179 -262 -1 -15 -3 -20 -6 -10 -7 27 -48 -19 -67 -79 -33 -101
-97 -165 -207 -209 -72 -28 -135 -33 -227 -18 -73 12 -109 41 -150 119 -23 43
-27 62 -26 135 0 106 26 178 91 250 76 84 147 112 274 106 72 -3 95 -8 139
-32z m-2021 -15 c34 -12 44 -36 39 -90 -2 -27 -10 -38 -40 -54 -47 -25 -79
-12 -108 45 -27 53 -23 68 20 91 41 22 47 23 89 8z m-3629 -81 c21 -45 37 -85
34 -89 -2 -3 -26 4 -53 17 -46 22 -81 67 -81 104 0 24 21 50 41 50 16 0 29
-19 59 -82z m3817 36 c-3 -3 -12 -4 -19 -1 -8 3 -5 6 6 6 11 1 17 -2 13 -5z
m-548 -91 c24 -30 21 -55 -12 -90 -37 -41 -91 -24 -101 30 -8 44 7 85 36 96
28 10 49 0 77 -36z m1481 19 c0 -21 -62 -92 -85 -98 -35 -9 -39 -2 -15 26 13
15 20 18 20 9 0 -9 5 -6 12 6 24 44 68 81 68 57z m-4393 -41 c9 -15 8 -21 -8
-34 -15 -14 -19 -14 -19 -3 0 8 -6 16 -12 19 -7 2 -5 3 4 2 10 -2 21 1 24 6 3
5 -6 9 -20 9 -14 0 -28 5 -31 10 -4 6 6 10 22 10 17 0 33 -8 40 -19z m3980 -2
c179 -39 279 -274 199 -467 -35 -84 -40 -133 -21 -222 36 -174 38 -196 27
-297 -10 -83 -9 -101 4 -120 20 -32 37 -21 118 77 79 96 123 121 275 157 103
25 117 26 469 28 l364 2 56 40 c157 110 448 171 612 129 171 -44 317 -191 351
-354 6 -32 9 -92 6 -137 -5 -83 -34 -176 -47 -155 -5 9 -9 9 -14 1 -18 -28
-26 -4 -26 79 0 95 -29 208 -70 275 -30 49 -121 130 -176 158 -144 72 -347 56
-488 -38 -80 -53 -244 -235 -334 -369 -39 -60 -47 -66 -53 -49 -4 12 -34 59
-67 105 -64 90 -138 154 -215 188 -91 40 -306 36 -391 -7 -117 -59 -180 -143
-241 -321 -8 -22 -41 3 -94 71 -27 34 -67 72 -88 84 -22 12 -48 31 -58 43 -19
21 -19 22 5 89 28 83 25 174 -9 217 -25 32 -26 42 -5 109 l17 52 -30 61 -30
60 41 34 41 35 -1 84 c-1 86 -23 159 -62 203 -26 29 -113 66 -157 66 -57 0
-475 -78 -494 -92 -9 -7 -30 -25 -47 -40 l-30 -28 -42 20 c-49 24 -119 26
-189 5 -50 -15 -78 -38 -129 -109 l-21 -29 -47 32 c-79 55 -111 64 -170 50
-64 -15 -84 -24 -122 -61 l-31 -29 -37 21 c-44 27 -54 26 -316 -24 -210 -39
-225 -44 -283 -83 -91 -63 -116 -186 -56 -276 32 -49 68 -80 113 -97 l26 -10
-2 -157 c-3 -137 0 -163 16 -195 23 -47 127 -151 184 -185 40 -24 49 -25 118
-19 88 8 89 5 38 -74 -19 -30 -39 -71 -44 -92 -6 -20 -10 -164 -11 -320 0
-276 -8 -496 -16 -470 -7 19 -20 14 -26 -9 -4 -13 -10 -18 -18 -13 -9 5 -11
76 -6 302 l5 296 -45 80 c-61 108 -103 159 -171 205 -93 62 -161 77 -288 61
-119 -15 -229 -53 -293 -101 -28 -21 -56 -39 -62 -39 -6 0 -25 10 -42 23 -27
18 -45 22 -107 21 -88 0 -146 -22 -208 -79 -78 -70 -77 -127 3 -221 55 -64 83
-74 216 -74 79 0 98 -3 103 -16 8 -21 8 -531 -1 -777 -4 -145 -9 -197 -18
-197 -7 0 -15 9 -18 20 -7 26 -57 28 -57 3 0 -10 -9 -29 -20 -43 -11 -14 -20
-31 -20 -38 0 -9 -7 -11 -22 -6 -34 11 -245 7 -307 -5 -30 -6 -56 -9 -59 -7
-8 9 8 57 21 61 7 2 38 6 70 10 47 5 57 10 57 26 0 11 7 19 17 19 22 0 63 39
63 61 0 10 9 19 23 22 13 3 6 5 -18 6 -22 1 -51 8 -65 16 -14 8 -42 14 -62 15
-30 0 -38 -4 -38 -18 0 -9 -9 -23 -19 -29 -11 -7 -21 -23 -23 -35 -3 -17 -6
-13 -11 17 -4 22 -11 58 -15 80 -4 22 -4 69 0 105 4 36 3 124 -2 195 -5 72
-12 195 -16 275 -3 79 -10 153 -15 165 -19 42 -136 181 -184 217 -28 21 -77
52 -109 68 -55 28 -67 30 -165 30 -177 0 -251 -29 -357 -142 -65 -69 -74 -87
-85 -167 -4 -37 -9 -395 -10 -796 -2 -684 -1 -733 16 -775 26 -62 73 -123 161
-204 l75 -69 -21 -22 c-20 -22 -44 -25 -88 -11 -26 9 -133 123 -177 189 -70
107 -69 92 -70 957 l0 775 24 59 c18 45 43 78 100 135 114 115 180 139 431
161 143 12 274 31 475 67 77 14 174 31 215 38 103 17 314 59 501 101 126 28
287 48 422 54 13 0 7 30 -14 72 -19 37 -21 57 -20 177 l1 136 -66 65 c-97 97
-119 138 -118 230 0 154 90 263 249 305 91 23 462 85 513 85 25 0 64 9 87 20
22 11 86 27 141 37 l100 17 36 -27 c43 -34 65 -34 80 -2 22 48 74 68 224 85
66 7 100 7 124 -2 29 -10 35 -9 49 11 21 27 51 35 251 67 91 14 185 29 210 34
66 11 123 11 177 -1z m-2162 -53 c32 -14 65 -59 65 -89 0 -39 -111 -107 -174
-107 -17 0 -16 -4 9 -30 l29 -30 -27 0 c-28 0 -68 35 -93 83 -39 72 42 185
134 187 12 0 38 -6 57 -14z m2529 -58 c9 -12 16 -31 16 -42 0 -23 -27 -56 -46
-56 -27 0 -57 93 -37 113 14 15 53 6 67 -15z m2489 7 c98 -25 246 -112 232
-135 -3 -4 2 -13 11 -20 12 -11 12 -15 2 -21 -10 -7 -9 -9 5 -9 13 0 17 -9 17
-42 0 -24 -6 -50 -13 -58 -11 -14 -51 -40 -60 -40 -7 0 -87 111 -87 120 0 5
-6 7 -13 4 -7 -2 -26 9 -42 26 -16 16 -35 30 -42 30 -8 0 -12 4 -9 9 4 5 3 17
0 26 -6 15 -18 17 -91 12 -51 -3 -94 -12 -108 -21 -13 -9 -31 -13 -40 -10 -19
8 -77 -15 -69 -27 3 -5 -1 -18 -10 -30 -13 -20 -14 -20 -19 -2 -3 12 -5 9 -6
-9 0 -16 -5 -28 -11 -28 -5 0 -12 -11 -16 -24 -5 -22 -9 -24 -30 -15 -34 12
-64 -21 -116 -128 -22 -46 -43 -85 -47 -87 -4 -3 -18 2 -30 10 -18 13 -21 21
-15 52 4 20 11 48 17 62 6 14 12 35 14 47 8 47 45 118 86 162 63 70 110 101
200 132 95 33 197 38 290 14z m-5715 -24 c112 -24 237 -82 307 -144 35 -31 63
-70 93 -128 44 -88 76 -179 62 -179 -12 0 0 -80 16 -112 8 -15 14 -44 14 -65
0 -51 -31 -124 -50 -120 -8 2 -14 8 -13 15 2 6 -4 9 -13 5 -13 -5 -13 -8 -2
-15 10 -8 10 -9 -2 -5 -8 2 -18 21 -21 43 -38 216 -219 417 -419 463 -72 17
-171 13 -234 -9 -195 -67 -322 -194 -376 -377 -7 -24 -19 -43 -27 -43 -11 0
-13 -24 -9 -126 4 -106 2 -129 -12 -145 -19 -21 -58 -25 -66 -6 -8 18 5 -64
14 -88 5 -11 17 -44 29 -73 21 -53 21 -53 1 -47 -27 9 -25 -8 5 -41 29 -31 40
-66 31 -91 -5 -13 -19 5 -52 67 -25 47 -61 109 -80 138 -69 104 -85 152 -91
275 -7 149 23 290 92 428 40 79 61 108 136 180 105 102 203 158 342 194 113
29 202 31 325 6z m5012 -15 c0 -2 -7 -6 -15 -10 -8 -3 -15 -1 -15 4 0 6 7 10
15 10 8 0 15 -2 15 -4z m-2223 -57 c8 -8 7 -20 -3 -45 -8 -18 -14 -44 -14 -56
0 -34 -24 -44 -151 -68 -63 -11 -124 -23 -136 -25 -21 -5 -23 -11 -23 -65 0
-33 4 -60 10 -60 5 0 56 9 112 20 57 11 106 20 111 20 13 0 8 -117 -5 -127
-23 -18 -81 -33 -151 -40 -38 -3 -70 -11 -72 -17 -2 -6 -6 -35 -9 -63 l-6 -53
67 1 c38 0 104 6 148 13 101 17 107 13 103 -68 l-3 -61 -60 -12 c-74 -14 -282
-44 -350 -50 -34 -3 -56 0 -70 11 -19 14 -20 25 -19 293 2 296 9 353 47 377
12 7 72 21 132 30 61 9 144 25 185 35 88 22 142 25 157 10z m2019 -46 c7 -10
14 -34 14 -55 0 -28 -7 -42 -30 -61 -38 -33 -64 -40 -106 -32 -31 5 -34 9 -34
40 0 40 39 91 85 111 41 18 55 17 71 -3z m-2728 -79 c22 -15 22 -17 22 -312 0
-167 -4 -313 -10 -333 -11 -38 -32 -53 -94 -65 -26 -4 -43 -2 -61 10 -24 16
-25 19 -25 138 l0 121 -57 -7 c-32 -4 -85 -12 -118 -19 l-60 -12 -2 -50 c-2
-27 -5 -87 -9 -133 -6 -78 -7 -83 -34 -97 -16 -8 -49 -15 -74 -15 -74 0 -73
-2 -69 322 3 156 9 297 14 315 26 82 119 109 184 52 20 -18 33 -34 31 -37 -3
-3 -12 1 -20 7 -13 11 -15 -2 -18 -96 -2 -59 -3 -109 -3 -110 1 -2 166 24 208
33 l27 6 1 96 c2 131 7 152 48 179 39 27 87 30 119 7z m-3423 -31 c95 -31 139
-58 186 -115 65 -79 82 -108 71 -121 -6 -7 -9 -53 -7 -107 4 -116 -8 -187 -45
-265 -48 -100 -122 -165 -263 -230 -73 -33 -108 -32 -187 6 -80 39 -116 54
-157 69 -17 7 -30 17 -28 23 3 7 -25 25 -62 42 -63 28 -68 32 -95 91 -54 116
-46 239 24 378 58 116 121 174 246 227 93 40 203 40 317 2z m7045 -19 c32 -14
66 -38 77 -52 77 -106 67 -262 -21 -325 -37 -28 -90 -51 -81 -37 3 5 -1 10
-10 10 -9 0 -14 -4 -11 -8 6 -11 -97 -7 -115 4 -12 7 -12 5 -1 -9 12 -14 11
-16 -6 -12 -60 11 -104 52 -143 131 -18 38 -21 58 -17 112 7 96 50 166 123
198 51 22 140 17 205 -12z m-2400 -64 c31 -31 35 -65 11 -96 -12 -15 -21 -23
-21 -18 0 5 -5 2 -10 -6 -9 -13 -11 -13 -19 0 -6 8 -13 11 -18 7 -4 -5 -1 -12
7 -18 13 -8 13 -10 0 -19 -21 -13 -36 -12 -69 5 -81 41 -36 165 60 165 25 0
46 -7 59 -20z m-1914 -36 c30 -25 54 -52 54 -59 0 -8 -13 -1 -29 16 -40 40
-51 37 -51 -15 0 -43 -1 -44 -47 -64 -27 -11 -64 -22 -84 -26 l-36 -6 -6 -253
-5 -252 -28 -24 c-25 -21 -34 -23 -83 -17 -69 8 -85 25 -77 84 3 24 9 133 13
243 l6 199 -86 -6 c-99 -8 -117 0 -117 51 0 41 31 80 73 94 17 6 113 22 211
37 99 14 189 30 200 34 33 14 36 12 92 -36z m-1426 2 c107 -28 196 -94 249
-184 31 -54 77 -179 68 -188 -2 -3 -34 -2 -71 2 l-66 7 -27 55 c-38 75 -96
138 -141 153 -67 23 -160 17 -218 -13 -58 -30 -117 -93 -144 -151 -12 -26 -20
-34 -24 -25 -3 7 -4 -46 -1 -118 l4 -131 -45 -32 -44 -33 -26 57 c-35 77 -44
197 -19 281 44 153 169 279 315 318 71 19 123 19 190 2z m3555 -197 c19 -17
35 -38 35 -46 0 -8 -14 -28 -32 -44 -25 -24 -39 -29 -67 -27 -30 2 -39 9 -53
38 -21 43 -14 76 21 95 39 21 57 18 96 -16z m226 -16 c13 -15 12 -15 -8 -4
-24 12 -29 21 -14 21 5 0 15 -7 22 -17z m-466 -28 c33 -32 31 -60 -4 -96 -36
-36 -64 -37 -97 -3 -31 30 -27 67 12 102 32 29 59 28 89 -3z m-2768 -47 c-3
-7 -5 -2 -5 12 0 14 2 19 5 13 2 -7 2 -19 0 -25z m-573 -39 c44 -35 35 -62
-31 -92 -68 -30 -181 -62 -189 -54 -9 9 5 60 26 95 42 68 139 94 194 51z
m4919 -72 c57 -34 68 -58 70 -152 1 -66 -2 -88 -21 -123 -24 -46 -260 -346
-372 -472 -36 -41 -85 -101 -109 -132 l-43 -58 72 -80 c40 -45 84 -90 98 -100
21 -17 107 -116 152 -175 14 -19 14 -19 -2 -6 -11 8 -18 9 -18 3 0 -12 33 -54
97 -124 48 -52 113 -178 113 -217 0 -38 -38 -107 -78 -142 -48 -42 -134 -80
-199 -86 -88 -9 -140 24 -284 180 -67 73 -143 152 -169 177 -55 53 -133 146
-179 213 -17 26 -36 47 -41 47 -5 0 -16 -12 -24 -27 -8 -16 -34 -50 -57 -77
l-44 -50 0 -231 0 -231 -28 -42 c-57 -86 -200 -159 -296 -150 -55 5 -116 44
-151 94 -49 73 -49 74 -47 847 l2 722 28 57 c37 76 122 163 173 177 50 14 158
14 207 0 21 -5 51 -22 67 -37 42 -39 48 -99 42 -427 -5 -269 -4 -279 13 -265
29 24 156 177 200 240 22 32 68 91 102 132 35 40 102 123 150 183 117 149 249
292 294 321 78 49 208 54 282 11z m800 -64 c-7 -2 -19 -2 -25 0 -7 3 -2 5 12
5 14 0 19 -2 13 -5z m-5343 -39 c30 -9 84 -31 121 -50 65 -34 207 -143 222
-170 15 -27 0 -44 -38 -44 -32 0 -65 14 -189 82 -17 9 -41 17 -54 18 -13 0
-31 4 -40 9 -22 12 -124 2 -115 -11 3 -7 -10 -9 -34 -7 -29 3 -39 1 -36 -8 6
-15 -30 -19 -129 -15 -67 3 -78 6 -78 21 0 17 -3 17 -50 2 -71 -23 -125 -78
-140 -142 -13 -55 -66 -127 -108 -146 -15 -7 -45 -12 -67 -11 -26 1 -53 -6
-75 -20 -38 -24 -80 -29 -80 -10 0 30 108 203 167 267 110 121 232 194 403
243 78 22 233 18 320 -8z m2127 -182 c9 -6 2 -25 -27 -72 -66 -107 -71 -131
-79 -378 -5 -123 -12 -227 -17 -232 -9 -9 -60 46 -229 250 -44 53 -116 135
-160 183 -121 132 -122 142 -13 120 87 -16 168 -9 346 32 12 3 47 28 77 55 54
49 77 58 102 42z m-2242 -22 c3 -5 1 -10 -4 -10 -6 0 -11 5 -11 10 0 6 2 10 4
10 3 0 8 -4 11 -10z m2651 -9 c27 -12 43 -27 47 -42 3 -13 15 -49 26 -78 19
-53 19 -77 15 -780 -3 -425 -9 -741 -15 -763 -15 -56 -88 -131 -166 -168 -53
-26 -83 -33 -147 -37 -132 -8 -112 -25 -547 462 -82 93 -159 191 -274 349
l-20 28 -4 -414 c-4 -461 -3 -452 -76 -516 -68 -60 -132 -86 -212 -87 -63 0
-76 3 -114 30 -53 38 -78 71 -89 121 -5 22 -7 349 -4 749 6 799 4 769 81 855
67 75 128 103 235 108 111 6 128 1 182 -52 25 -24 47 -42 49 -39 13 13 240
-249 312 -360 17 -26 17 -27 -1 -20 -18 6 17 -35 150 -177 34 -36 79 -91 100
-123 50 -72 58 -62 51 58 -3 50 -2 230 3 401 8 309 8 311 34 355 36 61 94 118
142 140 57 26 186 26 242 0z m-3811 -14 c29 -15 54 -49 55 -73 0 -26 -102
-132 -136 -140 -14 -4 -42 -1 -62 5 -27 9 -45 10 -64 2 -26 -10 -28 -8 -39 27
-22 74 35 181 103 195 32 7 119 -3 143 -16z m1035 13 c8 -5 11 -10 5 -10 -5 0
-17 5 -25 10 -8 5 -10 10 -5 10 6 0 17 -5 25 -10z m5660 -56 c68 -30 141 -102
170 -167 20 -44 26 -82 11 -73 -5 3 -11 -17 -13 -44 -7 -72 -69 -191 -121
-233 -53 -44 -89 -61 -154 -76 -48 -12 -54 -11 -110 16 -72 35 -94 74 -101
180 -6 88 7 95 43 23 43 -85 122 -113 193 -70 50 31 72 75 72 147 0 107 -43
162 -132 171 -34 3 -61 -1 -89 -13 -21 -10 -42 -15 -46 -12 -3 4 -1 24 5 46
18 59 16 81 -9 81 -35 0 -4 28 50 45 64 21 157 12 231 -21z m-5515 -35 c85
-21 59 -58 -55 -78 -84 -16 -121 -27 -198 -63 -69 -32 -125 -35 -130 -7 -7 40
108 128 194 148 55 13 138 13 189 0z m-1746 -104 c63 -35 145 -121 161 -171
11 -34 10 -38 -18 -67 -41 -44 -56 -76 -53 -114 1 -18 -3 -33 -9 -33 -5 0 -10
-11 -10 -25 0 -17 -4 -23 -15 -19 -11 5 -13 -1 -8 -31 5 -31 2 -41 -27 -70
-18 -19 -37 -32 -42 -29 -5 3 -26 27 -47 54 -34 43 -39 46 -56 34 -10 -8 -27
-14 -37 -14 -13 0 -18 -8 -18 -30 0 -16 -4 -30 -10 -30 -5 0 -13 -12 -16 -26
-6 -22 -11 -25 -35 -20 -16 3 -29 1 -29 -4 0 -6 -9 -10 -20 -10 -11 0 -20 5
-20 10 0 6 -6 10 -14 10 -8 0 -41 27 -75 61 -34 33 -65 58 -71 54 -5 -3 -16
18 -25 47 -45 153 15 320 143 395 82 49 139 64 222 60 60 -3 87 -9 129 -32z
m458 -138 c3 -4 0 -7 -8 -7 -15 0 -79 36 -79 44 0 6 77 -28 87 -37z m1783 12
c68 -14 103 -46 124 -111 15 -48 16 -130 15 -808 -1 -733 -2 -756 -21 -803
-19 -44 -39 -65 -117 -125 -97 -74 -241 -70 -329 11 -51 47 -52 60 -52 887 l0
767 28 39 c60 83 131 128 222 144 66 11 74 11 130 -1z m-521 -116 c32 -25 46
-69 32 -105 -13 -34 -89 -79 -145 -85 -48 -6 -99 15 -116 46 -5 11 -10 35 -10
54 0 38 35 77 95 104 39 17 110 10 144 -14z m-877 -145 c27 -20 38 -38 42 -65
3 -21 8 -317 11 -657 2 -340 6 -621 9 -623 2 -2 62 8 132 22 252 51 435 67
484 42 54 -27 91 -153 71 -240 -15 -64 -48 -108 -116 -153 -49 -33 -66 -38
-192 -55 -76 -11 -164 -26 -196 -34 -32 -8 -109 -22 -172 -30 -116 -15 -145
-21 -245 -49 -145 -41 -240 -1 -281 119 -16 48 -16 75 -6 895 l8 645 27 54
c30 61 100 125 159 147 25 9 70 13 134 12 87 -3 99 -6 131 -30z m5976 -64 c27
-19 29 -34 3 -27 -20 5 -61 -31 -61 -53 0 -15 -46 -24 -101 -21 l-37 2 18 25
c23 32 48 54 85 73 38 21 65 21 93 1z m-484 -149 c48 0 50 -1 123 -79 41 -43
105 -122 143 -175 37 -53 96 -123 129 -156 92 -90 127 -199 78 -242 l-24 -20
-20 23 c-11 12 -30 46 -42 76 -23 58 -87 137 -305 383 -147 165 -184 214 -149
198 10 -5 40 -9 67 -8z m908 -48 c129 -50 202 -130 205 -226 5 -141 3 -164
-13 -209 -19 -51 -52 -97 -39 -54 4 16 2 22 -9 22 -23 0 -45 28 -39 50 7 24
-13 27 -21 3 -2 -10 -5 -4 -4 12 1 93 -1 97 -51 145 -76 74 -177 89 -258 39
-41 -26 -83 -109 -83 -166 0 -48 34 -112 73 -138 25 -16 67 -84 67 -108 0 -22
-66 3 -88 34 -9 13 -15 24 -14 24 2 0 -1 13 -7 28 -6 15 -10 31 -9 35 0 4 -4
18 -10 32 -9 22 -11 22 -12 5 0 -13 -17 8 -44 55 -24 41 -63 93 -85 115 -47
45 -50 62 -17 130 73 154 292 236 458 172z m-7413 -163 c76 -21 105 -46 98
-82 -3 -16 -2 -53 2 -84 7 -50 5 -58 -15 -77 -18 -18 -27 -20 -49 -11 -14 5
-28 10 -30 10 -2 0 -1 -17 2 -39 3 -23 1 -41 -6 -45 -21 -14 -11 -34 55 -105
71 -76 76 -98 28 -119 -38 -18 -43 -16 -89 35 l-43 46 -68 -1 c-78 -2 -86 2
-133 71 -22 32 -39 47 -54 47 -13 0 -28 5 -34 11 -7 7 -22 9 -40 4 -26 -7 -26
-8 -8 -15 20 -9 6 -15 -24 -11 -7 2 -10 -2 -7 -7 8 -13 -3 -42 -16 -42 -18 0
1 179 23 227 26 53 92 129 133 150 50 26 138 52 180 52 22 1 65 -6 95 -15z
m7334 -88 c52 -22 72 -51 72 -108 0 -40 -5 -53 -23 -69 -13 -10 -21 -23 -18
-28 3 -5 -4 -11 -17 -15 -34 -9 -75 -7 -82 4 -3 5 -12 7 -19 4 -8 -3 -21 5
-30 18 -22 31 -20 45 3 24 21 -19 61 -29 61 -16 0 5 9 12 20 15 53 17 65 67
26 104 -33 31 -58 21 -87 -34 -30 -57 -59 -54 -59 7 0 42 22 80 55 94 39 17
58 17 98 0z m155 -225 l10 -28 -41 10 -40 10 23 19 c30 24 36 23 48 -11z
m-1512 -114 c22 -13 140 -118 280 -249 53 -50 105 -88 148 -109 69 -33 84 -58
47 -79 -46 -24 -117 -4 -197 56 -86 65 -276 256 -298 301 -10 21 -22 46 -27
55 -20 38 3 50 47 25z m-5714 -227 c25 -26 29 -35 22 -62 -14 -69 -70 -112
-113 -89 -22 12 -51 60 -51 85 0 31 67 93 103 95 5 1 22 -13 39 -29z m7242
-66 c18 -17 22 -54 5 -54 -5 0 -7 -4 -4 -10 3 -5 -1 -10 -9 -10 -9 0 -16 -5
-16 -12 0 -6 -3 -8 -7 -5 -3 4 -12 2 -20 -4 -9 -9 -13 -8 -13 0 0 6 -8 11 -18
11 -22 0 -52 34 -52 60 0 10 8 24 18 29 27 16 98 13 116 -5z m-3495 -78 c25
-29 68 -72 97 -97 49 -41 60 -58 70 -101 6 -30 -47 -22 -97 13 -89 63 -132
113 -165 189 -1 3 2 15 7 28 13 35 40 25 88 -32z m3231 34 c0 -5 -2 -10 -4
-10 -3 0 -8 5 -11 10 -3 6 -1 10 4 10 6 0 11 -4 11 -10z m-1390 -108 c0 -10 7
-28 16 -40 19 -27 14 -36 -15 -27 -17 5 -21 15 -21 51 0 28 4 43 10 39 6 -3
10 -14 10 -23z m-5875 4 c88 -19 129 -39 185 -92 94 -88 100 -107 107 -327 4
-127 -6 -185 -32 -188 -39 -4 -71 6 -96 32 -45 46 -43 15 2 -37 38 -44 40 -49
23 -61 -39 -28 -81 -27 -146 6 -35 17 -70 35 -78 40 -16 10 -110 40 -110 35 0
-2 12 -15 26 -29 29 -29 26 -60 -6 -52 -11 3 -26 -3 -36 -14 -16 -18 -16 -19
4 -19 17 0 22 -6 22 -24 0 -14 5 -28 12 -32 7 -4 8 -3 4 4 -12 21 6 13 28 -11
12 -13 20 -29 18 -35 -5 -15 -59 -16 -64 -1 -2 6 -34 12 -75 13 -44 1 -80 8
-94 18 -34 22 -98 90 -105 110 -3 10 -9 18 -14 18 -11 0 26 -66 53 -95 10 -11
23 -28 29 -38 8 -16 5 -15 -21 4 -36 26 -105 122 -127 176 -42 98 -35 264 13
363 52 106 172 199 306 235 66 17 97 18 172 1z m6156 -10 c7 -15 9 -40 4 -63
-7 -38 -7 -38 -20 -13 l-13 24 -4 -24 c-2 -20 -10 -26 -41 -31 -48 -8 -64 14
-47 66 21 64 99 90 121 41z m611 -106 c-4 -44 -15 -51 -32 -21 -15 29 -12 41
13 51 12 5 22 9 22 9 0 1 -1 -17 -3 -39z m-222 -5 c29 -15 80 -70 80 -86 0
-15 -79 -152 -100 -173 -25 -25 -123 -33 -176 -15 -22 7 -43 13 -47 14 -21 1
-47 53 -47 96 0 51 41 128 82 151 70 40 147 45 208 13z m-760 -12 c51 -24 157
-123 171 -162 9 -21 7 -29 -9 -42 -17 -13 -20 -31 -24 -135 -3 -109 -6 -123
-33 -172 -16 -30 -52 -75 -80 -100 -78 -72 -151 -103 -295 -127 -14 -3 -34 -6
-45 -9 -11 -2 -32 -5 -47 -5 -16 -1 -28 -7 -28 -14 0 -8 -16 -13 -42 -14 -64
-2 -97 -7 -92 -15 3 -4 -4 -6 -14 -5 -15 1 -8 14 36 72 70 89 82 119 82 200 0
43 4 65 12 65 6 0 20 8 31 18 15 12 18 13 12 2 -6 -11 -3 -10 11 2 10 10 19
31 20 48 l2 31 -34 -22 c-44 -27 -57 -21 -73 32 -16 54 -116 155 -185 189 -43
20 -57 22 -130 16 -139 -11 -239 -45 -298 -103 l-37 -36 -30 31 c-26 28 -35
32 -84 32 -68 0 -160 -43 -165 -78 -4 -27 -5 -27 -50 3 -47 32 -119 33 -287 5
-144 -24 -164 -36 -183 -111 -24 -93 -55 -106 -89 -36 -29 60 -75 82 -155 73
-74 -9 -106 -21 -139 -52 l-25 -24 -51 22 -52 21 -88 -22 c-48 -12 -125 -26
-170 -31 -98 -11 -111 -17 -153 -70 -17 -22 -39 -40 -48 -40 -10 0 -39 12 -67
25 -55 27 -90 30 -148 14 -30 -8 -42 -19 -62 -59 -14 -28 -28 -50 -31 -50 -3
0 -27 15 -53 32 -40 29 -54 33 -106 32 -35 0 -77 -8 -100 -18 -23 -11 -68 -19
-106 -20 -82 -3 -129 -26 -183 -90 l-41 -48 2 -88 2 -87 -112 -6 c-62 -2 -125
-10 -142 -17 -93 -36 -101 -116 -15 -148 17 -6 41 -5 75 4 28 8 76 20 108 28
l57 14 0 -27 c0 -15 7 -52 16 -82 13 -43 27 -65 75 -110 32 -31 59 -61 59 -66
0 -26 -337 -90 -411 -78 -43 7 -51 21 -16 28 18 3 16 5 -7 6 -45 2 -24 12 36
18 29 2 87 14 128 25 41 11 82 21 90 23 8 2 29 8 45 14 40 13 9 14 -35 1 -19
-6 -79 -17 -132 -26 -189 -32 -246 -2 -364 192 -8 12 -7 -5 3 -46 15 -67 29
-96 65 -132 24 -24 18 -34 -14 -17 -19 10 -21 10 -12 -2 8 -10 7 -20 -1 -37
l-13 -23 -19 28 c-100 141 -110 321 -28 483 57 113 146 202 250 251 62 30 291
82 515 119 69 11 188 31 265 44 77 14 185 31 240 40 174 27 653 105 840 137
99 17 279 46 400 65 121 18 272 43 336 54 63 11 192 31 285 44 93 13 259 38
369 56 351 56 617 89 695 86 50 -2 90 -10 120 -23z m-709 -234 c99 -34 163
-129 164 -244 0 -112 -55 -199 -167 -260 -76 -41 -167 -46 -234 -12 -93 47
-134 115 -134 224 0 193 199 350 371 292z m-481 -69 c13 -8 15 -45 13 -245 -1
-130 -5 -245 -8 -255 -4 -12 -20 -21 -46 -25 -71 -12 -71 -13 -67 254 2 130 7
244 12 253 12 25 68 36 96 18z m-273 -71 c59 -56 69 -121 26 -184 -20 -30 -23
-40 -12 -44 7 -2 26 -17 41 -32 48 -48 33 -123 -39 -192 -37 -35 -50 -40 -159
-63 -134 -27 -175 -29 -192 -12 -9 9 -12 81 -12 264 0 279 -4 264 68 264 20 1
66 7 102 15 88 19 145 13 177 -16z m-608 -78 c11 -7 4 -26 -34 -97 -26 -49
-67 -119 -91 -155 -41 -62 -44 -72 -45 -135 0 -38 -3 -87 -7 -109 l-7 -40 -60
0 -60 0 -5 107 c-4 87 -9 112 -26 135 -11 15 -51 73 -88 127 -76 111 -76 118
4 131 52 9 72 -4 129 -86 l49 -69 34 54 c18 30 45 75 60 100 27 45 28 46 80
46 29 0 59 -4 67 -9z m3121 -34 c65 -17 145 -56 188 -92 34 -28 102 -134 101
-156 0 -8 -4 -5 -9 6 -6 14 -8 1 -5 -40 13 -183 14 -239 5 -333 -11 -121 -38
-187 -103 -254 -59 -60 -122 -95 -214 -118 -115 -30 -135 -28 -173 20 -22 28
-28 41 -18 44 7 2 49 11 92 21 115 25 176 55 228 113 65 73 88 141 88 262 0
112 -13 160 -66 237 -54 79 -104 107 -216 123 -51 7 -97 17 -102 21 -14 13
101 11 124 -1 19 -10 70 -4 70 9 0 10 -59 33 -93 37 -154 15 -212 14 -291 -7
-44 -12 -85 -25 -91 -29 -16 -12 -143 -33 -160 -26 -60 22 81 145 202 176 53
13 376 4 443 -13z m-3681 -44 c31 -26 42 -141 33 -338 l-7 -160 -43 -14 c-70
-22 -72 -18 -72 119 0 71 -4 120 -10 120 -5 0 -30 -43 -56 -95 -25 -52 -50
-98 -55 -100 -17 -11 -48 16 -84 75 -20 33 -37 60 -38 60 -1 0 -3 -44 -4 -98
-3 -133 -6 -140 -50 -148 -42 -8 -30 -18 -152 140 -41 53 -79 96 -85 96 -8 0
-12 -44 -14 -137 -2 -95 -6 -140 -15 -145 -17 -11 -95 -10 -102 1 -3 6 -6 118
-7 250 -1 262 1 271 54 271 35 0 123 -80 203 -184 28 -36 52 -65 55 -66 3 0 3
60 2 133 -4 146 3 167 53 167 29 0 59 -38 110 -139 l37 -75 64 120 c84 158
127 193 183 147z m-2929 -92 c0 -11 -80 -44 -88 -36 -10 9 15 27 50 35 18 4
34 8 36 9 1 1 2 -3 2 -8z m241 -43 c39 -21 66 -69 52 -92 -4 -6 -8 -18 -8 -26
0 -17 -61 -60 -85 -60 -27 0 -81 42 -103 80 -50 88 45 154 144 98z m1815 -20
c12 -19 16 -451 5 -481 -10 -25 -15 -27 -66 -27 l-55 0 -1 193 c-1 268 1 311
14 319 19 12 95 9 103 -4z m5393 -34 c36 -30 41 -69 14 -114 -20 -35 -36 -40
-139 -40 -65 0 -83 -3 -88 -16 -5 -14 17 -48 26 -39 2 2 4 -5 4 -15 0 -16 -7
-20 -31 -20 -16 0 -46 -4 -66 -9 -49 -11 -59 -3 -63 51 -2 25 -10 67 -19 94
-25 80 -28 102 -15 110 17 11 131 21 250 23 90 1 98 -1 127 -25z m-1283 -35
c33 -13 74 -39 101 -65 l46 -43 -5 -84 c-8 -128 -52 -199 -159 -261 -54 -31
-132 -35 -200 -10 -47 17 -99 26 -99 18 0 -3 7 -18 15 -35 15 -28 15 -29 -3
-18 -49 31 -101 150 -102 235 0 102 43 189 121 245 59 42 198 51 285 18z m379
-18 c45 -20 78 -57 116 -131 19 -36 24 -61 24 -120 0 -137 -67 -227 -187 -254
-67 -15 -89 -11 -84 17 1 11 8 23 14 25 7 2 10 8 6 13 -3 5 -1 9 4 9 20 0 55
95 60 161 4 64 2 71 -33 135 -21 37 -57 86 -81 109 l-42 42 26 11 c36 15 125
6 177 -17z m-6472 -8 c10 -6 9 -51 -3 -93 -13 -49 -71 -103 -107 -102 -114 3
-112 2 -119 40 -5 24 -3 37 5 40 6 2 11 16 11 31 0 27 32 66 75 90 18 10 117
6 138 -6z m1029 -30 c24 -21 23 -65 -2 -88 -11 -10 -36 -18 -57 -19 -31 -1
-40 4 -59 32 -26 38 -23 57 15 77 35 19 80 19 103 -2z m2530 0 c25 -23 23 -62
-7 -106 -36 -53 -92 -51 -120 4 -22 42 -18 64 16 93 35 30 83 34 111 9z
m-2876 -78 c91 -31 143 -63 167 -103 17 -30 17 -31 -3 -42 -16 -8 -26 -7 -47
9 -68 49 -312 85 -404 61 -73 -20 -180 -102 -227 -175 -55 -85 -82 -155 -82
-211 0 -45 -5 -60 -25 -82 -20 -21 -27 -24 -34 -14 -4 8 -12 13 -17 13 -19 -2
-4 161 22 238 38 115 131 227 227 278 115 60 293 72 423 28z m873 -75 c-5 -11
23 -50 36 -50 27 0 25 -19 -4 -35 -30 -15 -31 -15 -46 14 -16 32 -19 63 -8 75
7 7 26 4 22 -4z m3933 -121 c-32 -100 -82 -117 -517 -179 -44 -7 -129 -20
-190 -30 -60 -10 -158 -24 -217 -30 l-106 -13 -41 29 c-46 33 -55 48 -41 73 6
13 26 20 67 24 122 12 242 29 343 47 58 11 180 29 271 40 101 13 213 34 285
54 65 19 129 34 141 35 21 1 21 1 5 -50z m1721 20 c12 -7 24 -13 26 -15 2 -2
-8 -19 -23 -39 -15 -19 -24 -40 -20 -47 5 -7 3 -8 -5 -4 -8 5 -14 0 -18 -13
-3 -12 -12 -21 -20 -21 -8 0 -21 -7 -29 -15 -21 -20 -47 -19 -74 3 -21 17 -22
22 -11 52 18 53 40 80 74 95 39 17 72 18 100 4z m-7598 -38 c22 -10 46 -25 52
-33 11 -13 3 -14 -67 -10 -71 4 -85 2 -134 -22 -72 -35 -120 -90 -142 -163
-22 -70 -21 -70 -35 -56 -6 6 -11 29 -11 51 2 103 91 208 202 238 62 17 89 16
135 -5z m7673 -11 c13 -21 9 -40 -8 -40 -4 0 -13 14 -19 30 -12 36 6 43 27 10z
m-6632 -42 c86 -53 119 -115 119 -223 0 -70 -4 -87 -30 -134 -16 -29 -40 -57
-53 -62 -31 -12 -35 -11 -29 4 3 8 -1 14 -9 14 -7 0 -11 -4 -9 -8 3 -4 -2 -10
-11 -13 -13 -5 -15 -2 -11 14 4 17 3 18 -16 8 -11 -6 -29 -19 -40 -28 -22 -21
-82 -31 -97 -16 -7 7 -10 6 -10 -3 0 -11 -3 -11 -14 -2 -10 9 -20 9 -34 2 -27
-15 -84 35 -118 104 -21 44 -26 69 -26 124 1 114 48 196 136 238 42 20 63 23
122 21 62 -3 79 -8 130 -40z m1956 -38 c-24 -22 -178 -48 -193 -33 -7 7 12 12
53 17 34 3 83 16 108 29 48 24 65 17 32 -13z m4603 -31 c10 -31 -9 -45 -40
-31 -26 12 -33 37 -12 45 27 11 46 6 52 -14z m-7579 -54 c57 -37 78 -116 47
-175 -21 -40 -75 -80 -110 -80 -70 0 -143 78 -143 152 0 98 121 159 206 103z
m5868 -6 c13 -68 -76 -137 -179 -139 -150 -2 -263 -10 -288 -19 -16 -6 -42
-11 -58 -11 -17 0 -67 -9 -112 -21 -58 -15 -97 -19 -132 -15 -27 4 -66 9 -85
11 -19 3 -42 4 -50 4 -89 -5 -145 3 -188 26 -45 24 -45 25 -12 18 65 -15 287
4 496 42 45 8 155 26 245 40 127 18 183 32 249 59 47 19 90 35 96 36 6 0 14
-14 18 -31z m-1594 -101 c25 -6 68 -22 95 -36 61 -30 189 -157 181 -178 -4 -9
-2 -12 5 -8 8 4 9 -1 3 -17 -10 -31 -9 -51 5 -118 15 -71 14 -126 -3 -181 -8
-25 -15 -38 -16 -30 -1 10 -3 11 -7 3 -2 -7 -14 -13 -24 -13 -11 0 -18 -4 -15
-9 6 -9 -62 -23 -76 -15 -4 3 -8 14 -8 25 0 11 -4 18 -9 15 -4 -3 -11 -37 -13
-76 -4 -56 -10 -76 -28 -95 -28 -30 -40 -31 -116 -5 -62 22 -106 27 -187 20
-43 -3 -47 -5 -31 -17 10 -7 21 -13 25 -13 13 0 -3 -49 -22 -66 -20 -18 -26
-54 -8 -54 5 0 7 -5 3 -11 -8 -13 -52 -6 -101 18 -32 15 -36 15 -44 1 -7 -12
-17 -14 -51 -8 -56 10 -100 60 -159 175 -36 71 -44 99 -47 154 -10 165 38 299
144 407 130 131 309 178 504 132z m-592 -30 c-3 -38 -6 -43 -30 -46 -21 -3
-30 2 -39 21 -16 36 3 67 42 67 29 0 30 -1 27 -42z m2362 21 c19 -12 40 -29
47 -38 21 -27 15 -77 -13 -110 -33 -40 -79 -42 -123 -5 -25 21 -31 33 -31 66
0 49 13 73 48 92 35 19 31 20 72 -5z m-4726 -66 c3 -27 2 -49 -4 -53 -5 -3 -8
-15 -6 -27 5 -24 -26 -85 -65 -131 -40 -46 -123 -102 -153 -102 -14 0 -26 -3
-26 -7 0 -13 -118 -9 -131 5 -7 6 -24 12 -38 13 -15 0 3 7 39 15 77 16 168 60
229 109 24 19 41 35 38 35 -3 0 7 28 23 63 17 34 30 69 30 78 0 15 34 47 51
48 4 1 9 -20 13 -46z m2121 27 c16 -18 17 -25 6 -55 -17 -47 -18 -271 -2 -620
20 -464 20 -478 10 -511 -19 -62 -87 -89 -195 -78 -49 5 -70 13 -94 34 l-30
27 61 41 c53 36 64 39 85 30 34 -16 40 -4 21 39 -16 35 -16 84 -9 544 9 552 6
528 67 555 42 18 59 17 80 -6z m-274 -49 c36 -36 37 -70 3 -110 -45 -53 -124
-34 -143 35 -12 45 -4 72 28 89 42 23 79 18 112 -14z m2514 19 c-29 -13 -94
-13 -75 0 8 5 33 9 55 9 31 0 36 -2 20 -9z m-5579 -48 c-33 -64 -117 -110
-181 -98 -44 9 -55 26 -18 26 40 0 122 43 163 85 39 40 60 33 36 -13z m2394
-72 c12 -8 9 -15 -20 -45 -39 -40 -52 -43 -81 -14 -26 26 -21 40 22 55 42 15
60 16 79 4z m-280 -35 c77 -40 133 -178 64 -161 -20 5 -24 1 -34 -35 -7 -23
-25 -55 -41 -71 -28 -28 -32 -29 -97 -25 -37 3 -80 8 -95 12 -27 7 -29 6 -26
-21 2 -16 8 -36 14 -44 9 -13 8 -13 -8 -1 -23 18 -62 95 -70 137 -28 147 156
278 293 209z m5063 11 c78 -28 135 -91 138 -153 4 -87 -29 -152 -105 -209 -42
-31 -43 -32 -134 -26 -88 5 -92 4 -85 -14 7 -18 6 -18 -17 -3 -71 47 -123 176
-101 249 13 43 70 113 120 145 42 28 123 32 184 11z m-5618 -26 c22 -43 19
-67 -15 -92 -41 -30 -41 -56 0 -31 40 23 54 9 38 -37 -6 -19 -12 -41 -14 -47
-2 -7 -14 -13 -27 -13 -25 0 -65 54 -47 65 23 14 8 25 -17 11 -16 -8 -43 -19
-60 -25 l-33 -10 0 39 c0 81 40 139 109 160 43 13 50 11 66 -20z m1209 -15
c134 -35 236 -138 274 -276 9 -35 9 -36 -16 -36 -34 0 -52 -28 -52 -80 0 -50
-26 -106 -65 -143 -20 -19 -38 -25 -73 -25 -26 -1 -60 -7 -75 -15 -27 -13 -71
-10 -167 14 -14 3 -19 4 -12 0 6 -3 12 -14 12 -24 0 -15 -10 -20 -46 -26 -25
-3 -61 -4 -80 -1 -18 3 -34 2 -34 -3 0 -22 -32 6 -63 53 -81 124 -93 235 -40
349 52 112 121 173 231 209 71 22 131 23 206 4z m2076 -45 c12 -12 20 -33 20
-52 0 -17 -3 -29 -6 -25 -7 7 -42 -26 -37 -35 2 -4 -3 -5 -11 -2 -11 4 -16 0
-16 -12 0 -15 -2 -16 -9 -5 -5 8 -11 9 -15 3 -3 -5 1 -15 9 -22 25 -20 92 16
112 61 16 38 16 38 29 15 17 -33 6 -74 -25 -94 -14 -9 -30 -22 -34 -29 -20
-33 -136 9 -123 43 4 10 -4 16 -23 20 -82 17 -9 154 82 154 15 0 36 -9 47 -20z
m1758 -17 c46 -22 102 -65 102 -78 0 -4 -36 0 -50 5 -12 5 -631 -2 -820 -9
-113 -4 -225 -4 -250 0 -52 9 -172 10 -150 2 8 -3 18 -11 22 -17 5 -8 8 -7 8
2 0 14 39 16 60 2 11 -7 7 -10 -17 -10 -18 0 -33 -4 -33 -10 0 -5 8 -10 19
-10 14 0 20 -10 25 -37 10 -65 8 -73 -19 -73 -25 0 -25 -1 -25 -89 l0 -89 -30
-7 c-49 -11 -53 -1 -47 95 5 81 4 88 -14 93 -10 3 -34 -3 -53 -13 -40 -20
-131 -34 -149 -23 -6 4 -26 6 -43 4 -107 -9 3 209 133 265 21 9 58 19 83 24
25 4 304 5 620 3 l575 -5 53 -25z m-1674 -19 c3 -8 2 -12 -4 -9 -6 3 -10 10
-10 16 0 14 7 11 14 -7z m735 -119 c-1 -5 -11 -8 -22 -7 -17 3 -19 0 -12 -20
11 -35 18 -164 11 -203 -4 -22 -14 -36 -27 -40 -37 -12 -44 9 -41 113 4 120
10 152 28 152 8 0 14 5 14 11 0 6 11 9 25 7 14 -2 25 -7 24 -13z m125 -14 c3
-4 36 -11 73 -14 97 -7 124 -54 41 -71 l-31 -6 34 -23 c29 -19 34 -30 37 -66
3 -34 -2 -49 -19 -67 -20 -21 -29 -23 -113 -22 -119 1 -168 26 -149 74 6 17
33 16 121 -2 49 -10 39 11 -15 31 -62 23 -93 52 -93 86 0 35 17 48 73 55 26 4
44 11 41 16 -3 5 -13 7 -21 4 -8 -3 -11 -1 -8 4 8 12 22 13 29 1z m-4479 -27
c30 -33 31 -48 5 -74 -29 -29 -115 -28 -130 0 -17 32 -3 56 43 79 53 26 53 26
82 -5z m4733 -13 c12 -15 17 -175 6 -205 -5 -13 -50 -24 -55 -13 -6 11 -12
244 -6 240 4 -2 7 1 7 8 0 13 25 -3 48 -30z m212 16 c19 -15 50 -63 50 -77 0
-6 -12 -4 -31 5 -16 9 -47 15 -67 13 -35 -3 -37 -5 -40 -41 -2 -26 2 -45 14
-58 34 -38 60 -14 29 27 -18 24 -19 64 -1 64 21 0 79 -43 95 -71 21 -37 8 -72
-34 -92 -20 -9 -46 -17 -59 -17 -31 0 -111 64 -126 101 -14 32 -7 102 10 107
5 2 29 14 53 27 47 26 84 30 107 12z m293 -99 c9 -156 -8 -173 -87 -88 -26 28
-49 50 -51 50 -3 0 -2 -13 1 -29 10 -50 -30 -94 -53 -58 -4 6 -8 39 -9 72 -1
33 -5 81 -9 108 -7 44 -6 47 14 47 12 0 44 -20 71 -46 l49 -46 7 39 c8 45 20
63 44 63 15 0 18 -15 23 -112z m-4971 -113 c80 -54 101 -147 46 -206 -25 -28
-58 -98 -58 -124 0 -52 -38 -96 -105 -125 -39 -17 -79 -20 -312 -24 -148 -3
-365 -8 -483 -12 -308 -9 -400 9 -468 92 -17 21 -38 64 -47 99 -16 58 -16 68
-2 125 9 34 23 73 31 85 19 29 95 91 127 104 14 6 260 10 629 10 l605 1 37
-25z m2403 -25 c3 -6 -1 -7 -9 -4 -18 7 -21 14 -7 14 6 0 13 -4 16 -10z
m-1912 -65 c99 -21 154 -55 206 -128 44 -61 44 -62 48 -159 3 -70 -1 -113 -13
-155 -17 -59 -63 -130 -100 -154 -12 -8 -42 -28 -67 -45 -68 -46 -148 -59
-229 -39 -77 20 -111 42 -210 138 -90 88 -94 100 -80 244 13 131 33 170 109
216 86 51 117 66 175 81 68 19 79 19 161 1z m2848 -61 c72 -33 140 -104 163
-171 19 -56 20 -74 4 -96 -21 -27 -60 -27 -86 0 -33 36 -46 25 -43 -34 2 -53
-11 -71 -40 -52 -8 5 -28 9 -46 9 -30 0 -32 -2 -35 -42 l-3 -43 -56 0 c-71 0
-104 18 -126 66 -16 35 -33 51 -33 32 0 -54 64 -144 115 -163 49 -19 28 -33
-38 -27 -205 18 -294 142 -236 329 58 189 269 277 460 192z m364 -184 c15 -29
21 -152 9 -184 -5 -14 -8 -13 -23 3 -9 11 -26 22 -39 26 -17 5 -24 1 -31 -17
-6 -14 -10 -17 -11 -8 -2 17 -5 43 -16 112 -6 41 -4 49 19 72 36 36 72 34 92
-4z m-1254 -277 c16 -150 27 -536 16 -560 -14 -32 -71 -32 -89 0 -19 33 -17
456 3 531 5 17 11 48 14 69 3 21 10 35 14 32 5 -3 12 2 15 11 11 28 17 9 27
-83z m939 87 c0 -5 -2 -10 -4 -10 -3 0 -8 5 -11 10 -3 6 -1 10 4 10 6 0 11 -4
11 -10z"/>
<path d="M5440 8342 c0 -10 -6 -24 -12 -32 -11 -12 -10 -12 3 -2 19 14 32 52
18 52 -5 0 -9 -8 -9 -18z"/>
<path d="M5345 8331 c-4 -8 0 -21 13 -33 16 -16 24 -18 38 -9 18 10 17 10 -4
11 -14 0 -26 8 -31 22 -5 15 -10 18 -16 9z"/>
<path d="M4362 8521 c-104 -55 -92 -186 18 -198 40 -4 48 -2 74 26 22 23 30
43 34 82 3 37 2 50 -7 45 -6 -4 -11 -1 -11 7 0 17 -28 43 -55 50 -11 3 -35 -2
-53 -12z m-4 -25 c-7 -8 -15 -12 -17 -11 -5 6 10 25 20 25 5 0 4 -6 -3 -14z
m99 -22 c-3 -3 -12 -4 -19 -1 -8 3 -5 6 6 6 11 1 17 -2 13 -5z"/>
<path d="M3773 8282 c-12 -4 -37 -22 -57 -40 -33 -30 -36 -37 -36 -88 0 -77
22 -115 80 -135 26 -9 36 -7 74 15 54 31 82 66 97 117 11 35 10 41 -15 73 -15
20 -35 40 -44 45 -26 14 -75 20 -99 13z"/>
<path d="M8113 7685 c-24 -25 -43 -53 -43 -63 0 -31 48 -120 74 -137 33 -22
77 -12 122 27 70 62 79 121 26 170 -69 65 -119 65 -179 3z"/>
<path d="M4239 7737 c-58 -39 -63 -93 -16 -152 19 -23 32 -29 61 -28 47 1 102
43 111 82 8 38 -16 86 -55 106 -40 21 -61 19 -101 -8z"/>
<path d="M7077 7456 c-103 -38 -148 -147 -94 -227 12 -19 44 -49 71 -66 82
-56 168 -44 234 31 17 20 34 51 37 70 12 64 -17 142 -68 180 -34 25 -127 32
-180 12z"/>
<path d="M3210 5270 c0 -5 5 -10 10 -10 6 0 10 -11 10 -25 0 -31 20 -33 21 -2
0 21 1 21 11 -3 10 -23 11 -23 16 -5 2 12 -4 26 -18 37 -24 20 -50 24 -50 8z"/>
<path d="M3160 5170 c0 -5 5 -10 11 -10 5 0 7 5 4 10 -3 6 -8 10 -11 10 -2 0
-4 -4 -4 -10z"/>
<path d="M3061 4814 c0 -11 3 -14 6 -6 3 7 2 16 -1 19 -3 4 -6 -2 -5 -13z"/>
<path d="M3048 4723 c6 -2 18 -2 25 0 6 3 1 5 -13 5 -14 0 -19 -2 -12 -5z"/>
<path d="M3010 4680 c19 -13 30 -13 30 0 0 6 -10 10 -22 10 -19 0 -20 -2 -8
-10z"/>
<path d="M3481 6764 c0 -11 3 -14 6 -6 3 7 2 16 -1 19 -3 4 -6 -2 -5 -13z"/>
<path d="M1545 6907 c-131 -53 -205 -162 -205 -298 0 -97 29 -164 99 -230 113
-105 237 -116 380 -32 25 14 40 20 33 11 -10 -13 -10 -17 5 -22 10 -4 20 -1
25 9 5 8 16 15 23 15 8 0 15 5 15 10 0 6 9 20 20 32 25 27 34 91 27 198 -9
140 -74 244 -179 290 -63 28 -195 37 -243 17z m142 -92 c69 -14 137 -86 157
-166 12 -52 -11 -130 -52 -172 -75 -79 -161 -96 -247 -49 -64 35 -96 94 -102
189 -4 57 -1 75 19 112 13 25 35 54 50 65 27 19 98 36 128 30 8 -1 29 -5 47
-9z"/>
<path d="M1575 6668 c-24 -18 -27 -26 -22 -61 8 -58 36 -91 81 -95 32 -3 43 2
77 36 21 22 39 44 39 50 0 5 -20 28 -45 51 -51 47 -87 53 -130 19z"/>
<path d="M8726 6899 c-91 -25 -105 -129 -24 -179 46 -28 62 -25 108 16 49 44
54 86 15 132 -28 33 -57 42 -99 31z"/>
<path d="M6725 6070 c-16 -7 -17 -9 -3 -9 9 -1 20 4 23 9 7 11 7 11 -20 0z"/>
<path d="M6862 5990 c0 -19 2 -27 5 -17 2 9 2 25 0 35 -3 9 -5 1 -5 -18z"/>
<path d="M6858 5849 c-11 -37 -66 -90 -127 -122 -66 -34 -78 -34 -132 3 l-44
29 -8 -31 c-5 -18 -5 -41 0 -52 5 -12 8 -38 7 -59 l-2 -38 42 5 c22 3 66 8 96
11 69 7 157 55 171 92 5 14 8 63 7 107 -2 55 -5 73 -10 55z"/>
<path d="M6731 5251 c-7 -16 -12 -53 -11 -82 4 -128 4 -129 -34 -129 -29 0
-33 3 -29 20 3 11 0 20 -6 20 -6 0 -11 -9 -11 -20 0 -15 -7 -20 -24 -20 -27 0
-55 -32 -57 -65 -1 -13 -4 -9 -8 10 -4 19 -11 -28 -20 -131 -15 -184 -10 -206
53 -262 44 -38 77 -41 147 -11 51 23 56 28 38 46 -8 8 -5 14 11 23 27 14 37 6
20 -15 -12 -14 -11 -15 12 -4 52 23 63 73 63 289 0 192 0 195 -22 198 -15 2
-27 18 -42 55 -46 111 -61 126 -80 78z"/>
<path d="M7814 5072 c-4 -12 -11 -19 -20 -15 -8 3 -14 0 -14 -6 0 -6 -6 -11
-14 -11 -7 0 -26 -6 -41 -14 -15 -8 -58 -17 -96 -21 -49 -5 -69 -11 -69 -21 0
-8 -8 -14 -19 -14 -10 0 -25 -8 -32 -17 -10 -11 -10 -14 -1 -9 7 4 12 1 12 -8
0 -9 7 -16 16 -16 8 0 13 -4 10 -8 -10 -16 89 -127 129 -146 78 -36 171 -11
239 65 41 45 47 85 19 136 -19 32 -66 88 -96 112 -16 13 -19 12 -23 -7z"/>
<path d="M5885 5987 c-16 -25 -28 -33 -58 -35 -22 -2 -46 3 -59 12 -32 23 -38
20 -38 -14 0 -40 39 -80 77 -80 40 0 87 32 106 73 34 70 11 106 -28 44z"/>
<path d="M4633 5845 c-32 -23 -65 -82 -58 -104 11 -36 46 -71 70 -71 33 0 81
44 95 86 10 29 9 39 -5 60 -14 22 -51 44 -73 44 -4 0 -17 -7 -29 -15z"/>
<path d="M5962 5040 c-9 -17 -24 -32 -33 -35 -9 -3 -24 -14 -34 -25 -10 -11
-26 -20 -35 -20 -9 0 -27 -11 -40 -25 -13 -14 -29 -25 -36 -25 -7 0 -16 -9
-19 -20 -4 -11 -11 -18 -16 -15 -5 4 -9 2 -9 -4 0 -13 -53 -66 -62 -63 -5 1
-8 -3 -8 -8 0 -6 -10 -8 -23 -5 -15 4 -28 1 -36 -9 -13 -15 -80 -12 -91 5 -3
4 -34 -2 -68 -13 l-62 -22 20 -21 c11 -12 20 -25 20 -29 0 -10 116 -162 164
-214 50 -55 84 -72 139 -72 70 0 140 26 192 72 73 64 75 74 75 343 0 243 -4
265 -38 205z"/>
<path d="M4757 4885 c-4 -55 -7 -132 -7 -171 0 -57 -4 -77 -21 -98 -11 -14
-27 -26 -35 -26 -8 0 -14 -4 -14 -10 0 -6 -9 -6 -25 0 -14 5 -31 7 -38 4 -9
-3 -18 9 -26 35 -15 52 -31 62 -20 13 18 -79 79 -92 165 -35 l56 37 -7 81 c-4
44 -11 123 -14 175 l-6 95 -8 -100z"/>
<path d="M4500 4520 c-6 -118 -1 -170 17 -201 20 -34 81 -69 120 -69 36 0 113
47 141 87 33 46 56 173 32 173 -5 0 -10 -24 -10 -53 0 -39 -5 -57 -18 -68 -18
-15 -19 -14 -18 25 2 76 -61 128 -127 107 -41 -14 -60 -34 -84 -86 -15 -34
-18 -37 -21 -17 -2 12 -7 22 -12 22 -5 0 -11 37 -13 83 l-3 82 -4 -85z m252
-182 c-7 -7 -12 -8 -12 -2 0 6 3 14 7 17 3 4 9 5 12 2 2 -3 -1 -11 -7 -17z
m-125 -64 c-3 -3 -12 -4 -19 -1 -8 3 -5 6 6 6 11 1 17 -2 13 -5z"/>
<path d="M4803 4560 c0 -25 2 -35 4 -22 2 12 2 32 0 45 -2 12 -4 2 -4 -23z"/>
<path d="M1492 5700 c0 -14 2 -19 5 -12 2 6 2 18 0 25 -3 6 -5 1 -5 -13z"/>
<path d="M1577 5673 c-5 -27 -2 -42 8 -53 14 -13 14 -9 9 35 -8 63 -10 64 -17
18z"/>
<path d="M3684 5736 c-42 -19 -64 -52 -64 -99 0 -50 52 -107 97 -107 66 0 134
77 119 135 -4 15 -20 40 -36 56 -32 32 -66 36 -116 15z"/>
<path d="M3674 5356 c-75 -75 -9 -174 89 -133 70 30 84 91 32 143 -36 36 -79
32 -121 -10z"/>
<path d="M3880 4465 c0 -63 -6 -133 -12 -155 l-12 -39 -38 21 c-31 18 -42 19
-60 10 -31 -16 -108 -22 -137 -10 -17 6 -27 5 -32 -4 -13 -20 -3 -92 16 -122
10 -15 18 -37 19 -49 1 -16 11 -26 41 -36 37 -13 44 -12 91 8 65 28 123 87
134 137 13 55 12 354 0 354 -6 0 -10 -45 -10 -115z"/>
<path d="M2280 5510 c0 -5 5 -10 11 -10 5 0 7 5 4 10 -3 6 -8 10 -11 10 -2 0
-4 -4 -4 -10z"/>
<path d="M2307 5438 c-20 -47 -43 -63 -93 -63 -38 0 -42 -2 -27 -12 50 -37
143 13 143 76 0 40 -6 39 -23 -1z"/>
<path d="M3000 4254 c-25 -7 -57 -13 -72 -13 -15 -1 -33 -10 -41 -21 -14 -20
-156 -90 -183 -90 -7 0 -14 -4 -14 -10 0 -5 -11 -12 -25 -16 -14 -3 -25 -9
-25 -13 0 -8 -154 -7 -205 2 -28 4 -32 4 -15 -2 22 -8 20 -9 -17 -10 -28 -1
-43 3 -43 12 0 8 -4 7 -10 -3 -7 -11 -12 -12 -18 -3 -4 6 -20 18 -35 26 -24
13 -36 13 -80 1 -29 -8 -62 -14 -74 -14 -13 0 -23 -6 -23 -12 0 -10 -2 -10 -9
0 -11 17 -21 -32 -21 -100 0 -57 20 -98 60 -122 39 -23 63 -21 213 18 73 19
169 39 212 46 151 21 370 61 421 75 85 24 146 117 129 195 -5 24 -61 74 -76
69 -2 -1 -24 -7 -49 -15z"/>
<path d="M1277 4933 c-18 -31 -16 -71 4 -97 26 -33 54 -31 82 5 20 28 16 49
-19 83 -16 16 -59 22 -67 9z"/>
<path d="M1272 3971 c-15 -9 -2 -86 19 -105 9 -8 10 -8 4 3 -5 8 -11 32 -15
53 -6 30 -4 41 9 48 9 5 12 9 6 10 -5 0 -16 -4 -23 -9z"/>
<path d="M1255 3570 c-3 -5 -1 -10 4 -10 6 0 11 5 11 10 0 6 -2 10 -4 10 -3 0
-8 -4 -11 -10z"/>
<path d="M7525 4330 c-3 -5 3 -10 15 -10 12 0 18 5 15 10 -3 6 -10 10 -15 10
-5 0 -12 -4 -15 -10z"/>
<path d="M7007 3899 c-50 -12 -79 -28 -72 -40 4 -5 11 -7 16 -4 21 14 27 -7
15 -50 -8 -24 -11 -46 -8 -49 3 -4 31 -6 63 -6 47 0 63 5 88 26 37 31 40 63 9
97 -28 30 -60 37 -111 26z"/>
<path d="M6301 3804 c-22 -19 -45 -50 -51 -69 -22 -66 25 -156 86 -168 86 -16
184 63 184 149 0 87 -39 124 -129 124 -44 0 -56 -5 -90 -36z"/>
<path d="M5538 3733 c-14 -3 -18 -15 -18 -50 0 -34 3 -44 14 -40 7 3 34 9 60
12 50 8 72 31 61 65 -5 16 -15 20 -53 19 -26 -1 -55 -3 -64 -6z"/>
<path d="M5533 3543 c-8 -3 -13 -25 -13 -60 0 -47 2 -54 18 -50 9 3 35 8 57
12 83 13 103 32 85 79 -9 24 -14 26 -72 25 -35 0 -69 -3 -75 -6z"/>
<path d="M8779 3363 c-12 -32 -11 -33 24 -26 21 4 27 10 25 26 -5 30 -37 30
-49 0z"/>
<path d="M7643 3304 c-80 -40 -95 -143 -31 -211 26 -27 93 -31 137 -8 74 38
100 109 61 172 -36 59 -104 78 -167 47z"/>
<path d="M2161 2934 c-50 -45 -66 -88 -51 -143 24 -89 117 -120 199 -65 50 33
74 76 66 117 -18 80 -69 127 -137 127 -29 0 -47 -8 -77 -36z"/>
<path d="M5346 2404 c-12 -31 3 -34 22 -4 10 16 10 20 -2 20 -8 0 -17 -7 -20
-16z"/>
<path d="M5622 2317 c-1 -56 -4 -114 -6 -129 -2 -19 1 -28 10 -28 11 0 14 22
16 93 3 123 1 148 -9 158 -4 4 -9 -38 -11 -94z"/>
<path d="M5465 2315 c-14 -85 -12 -139 6 -143 13 -2 17 10 23 69 4 41 2 75 -3
78 -5 3 -11 15 -13 26 -3 12 -8 0 -13 -30z"/>
<path d="M5351 2238 c0 -46 3 -78 9 -78 12 0 12 46 1 110 -8 41 -9 39 -10 -32z"/>
<path d="M8504 2514 c-18 -9 -43 -27 -55 -41 -26 -29 -12 -23 39 15 24 18 46
25 81 26 27 0 47 4 44 8 -8 14 -77 8 -109 -8z"/>
<path d="M8512 2470 c-40 -25 -67 -78 -58 -115 9 -34 58 -85 83 -85 30 0 105
43 127 72 17 24 18 32 7 67 -22 75 -92 102 -159 61z"/>
<path d="M4069 2295 c-28 -15 -49 -60 -49 -102 0 -52 51 -112 85 -99 7 2 16
-2 19 -10 7 -17 46 -18 69 -1 14 9 18 29 19 95 0 74 -2 86 -22 107 -27 29 -79
33 -121 10z m99 -30 c-3 -3 -9 2 -12 12 -6 14 -5 15 5 6 7 -7 10 -15 7 -18z
m-68 -155 c0 -5 -4 -10 -10 -10 -5 0 -10 5 -10 10 0 6 5 10 10 10 6 0 10 -4
10 -10z"/>
<path d="M4277 2173 c-14 -14 -6 -23 21 -22 23 2 24 2 4 6 -12 2 -20 9 -17 14
7 10 1 12 -8 2z"/>
<path d="M2361 1939 c-6 -18 -11 -67 -11 -110 l0 -79 38 0 c20 0 48 -3 62 -6
20 -4 22 -3 10 5 -8 6 -27 11 -42 11 -16 0 -28 5 -28 10 0 6 4 10 10 10 6 0 6
9 0 26 -15 37 -12 97 5 120 22 29 18 41 -5 16 -27 -28 -32 -28 -24 3 9 36 -2
31 -15 -6z"/>
<path d="M2246 1878 c-11 -71 -13 -128 -5 -128 17 0 29 41 29 99 0 65 -16 83
-24 29z"/>
<path d="M2502 1898 c-23 -23 -8 -78 21 -78 5 0 4 6 -2 14 -7 8 -10 29 -8 45
6 35 6 36 -11 19z"/>
<path d="M2568 1893 c7 -3 16 -2 19 1 4 3 -2 6 -13 5 -11 0 -14 -3 -6 -6z"/>
<path d="M2130 1826 c0 -9 7 -16 16 -16 17 0 14 22 -4 28 -7 2 -12 -3 -12 -12z"/>
<path d="M2320 1730 c0 -5 5 -10 10 -10 6 0 10 5 10 10 0 6 -4 10 -10 10 -5 0
-10 -4 -10 -10z"/>
<path d="M3359 1817 c-87 -46 -119 -164 -66 -241 68 -101 174 -124 252 -55 42
37 85 110 85 144 0 64 -68 145 -138 165 -56 15 -84 12 -133 -13z m139 -133
c13 -9 22 -25 22 -42 0 -35 -8 -46 -48 -66 -24 -12 -37 -14 -52 -6 -63 34 -46
130 23 130 18 0 43 -7 55 -16z"/>
<path d="M6240 1774 c0 -4 14 -22 30 -41 17 -18 30 -38 30 -43 0 -6 7 -10 16
-10 19 0 13 37 -13 76 -14 21 -63 35 -63 18z"/>
<path d="M6174 1655 c-14 -37 21 -58 56 -35 13 9 12 13 -9 30 -28 24 -40 25
-47 5z"/>
<path d="M3916 8818 c-9 -12 -16 -28 -16 -35 0 -6 -10 -13 -22 -15 -20 -3 -23
-8 -21 -48 2 -32 8 -50 24 -63 54 -43 106 -31 139 34 25 47 18 79 -27 124 -32
31 -57 32 -77 3z"/>
<path d="M7014 8782 c-35 -17 -71 -43 -84 -62 -46 -65 -63 -178 -36 -243 30
-73 138 -134 221 -124 96 10 202 111 212 201 14 118 -84 236 -208 252 -35 4
-56 -1 -105 -24z m174 -132 c82 -81 23 -220 -93 -220 -29 0 -44 7 -70 33 -43
43 -52 79 -34 131 29 85 138 115 197 56z"/>
<path d="M4748 8693 c-3 -13 -2 -23 3 -23 5 0 9 -7 9 -15 0 -22 27 -19 40 4
15 28 13 32 -14 25 -18 -4 -25 -1 -28 13 -3 15 -5 15 -10 -4z"/>
<path d="M5946 8694 c-23 -23 -20 -42 13 -75 37 -37 76 -39 85 -5 16 65 -55
123 -98 80z"/>
<path d="M8080 8285 c-27 -28 -23 -68 11 -116 26 -37 51 -37 82 0 l25 30 31
-40 c26 -31 39 -39 65 -39 47 0 90 41 82 78 -4 15 -16 35 -28 45 -25 21 -86
22 -112 2 -27 -20 -36 -19 -36 5 0 27 -39 60 -70 60 -15 0 -36 -11 -50 -25z"/>
<path d="M8483 8178 c-28 -14 -36 -38 -24 -71 16 -43 44 -51 91 -27 42 22 61
60 43 89 -12 19 -79 25 -110 9z"/>
<path d="M1490 8110 c-35 -37 -44 -73 -30 -116 25 -73 110 -98 168 -49 36 30
46 67 32 114 -16 56 -47 81 -98 81 -36 0 -49 -5 -72 -30z"/>
<path d="M8840 7815 c-11 -13 -8 -15 14 -15 25 0 26 -2 13 -20 -7 -11 -29 -30
-48 -43 -19 -12 -35 -33 -37 -45 -4 -26 -17 -28 -31 -4 -6 9 -11 13 -11 7 0
-5 -5 -3 -11 5 -8 11 -9 -2 -5 -47 11 -119 48 -166 129 -165 102 2 121 28 118
161 -2 108 -10 129 -53 138 -27 5 -29 8 -14 18 9 7 16 15 16 19 0 13 -68 5
-80 -9z m105 -161 c8 -44 -3 -54 -61 -54 -48 0 -80 20 -71 44 8 20 62 45 98
46 23 0 28 -5 34 -36z"/>
<path d="M1151 7784 c-46 -33 -60 -111 -28 -155 18 -23 52 -39 86 -39 36 0 96
48 105 85 7 29 -16 92 -42 111 -24 19 -93 17 -121 -2z"/>
<path d="M1468 7744 c-38 -20 -36 -28 2 -9 17 9 30 18 30 20 0 7 -1 6 -32 -11z"/>
<path d="M9165 7483 c-33 -8 -65 -44 -65 -73 0 -15 10 -42 23 -61 46 -68 135
-41 144 44 4 35 0 46 -22 70 -25 26 -39 30 -80 20z"/>
<path d="M1000 6961 c0 -10 -5 -22 -12 -29 -16 -16 19 -29 41 -15 28 17 26 50
-3 55 -20 4 -26 1 -26 -11z"/>
<path d="M9252 6270 c-56 -34 -59 -85 -10 -137 52 -56 148 -2 148 82 0 59 -79
92 -138 55z"/>
<path d="M1020 6100 c0 -15 -57 -67 -82 -76 -20 -6 -24 -24 -7 -24 40 0 116
86 95 107 -3 3 -6 1 -6 -7z"/>
<path d="M9422 5838 c32 -27 26 -49 -18 -63 -23 -6 -62 -26 -87 -44 -25 -17
-53 -31 -61 -31 -30 0 -29 -46 1 -102 24 -45 35 -55 78 -70 69 -25 125 -23
165 5 89 60 107 158 46 252 -23 34 -57 55 -102 61 -34 5 -37 4 -22 -8z"/>
<path d="M883 5553 c2 -25 -2 -28 -38 -33 -56 -8 -65 -16 -65 -56 0 -50 45
-94 95 -94 29 0 45 8 71 34 31 31 40 55 34 96 -3 22 -61 80 -81 80 -13 0 -17
-7 -16 -27z"/>
<path d="M9152 5437 c-34 -36 -30 -92 9 -128 37 -35 68 -37 96 -6 47 51 53 85
22 128 -17 24 -27 29 -63 29 -32 0 -48 -6 -64 -23z"/>
<path d="M987 5293 c-23 -22 6 -73 41 -73 16 0 22 28 12 55 -9 24 -38 34 -53
18z"/>
<path d="M9428 4993 c7 -3 16 -2 19 1 4 3 -2 6 -13 5 -11 0 -14 -3 -6 -6z"/>
<path d="M840 4485 c0 -38 24 -59 63 -53 24 3 56 52 43 65 -5 4 -11 2 -13 -5
-18 -50 -68 -53 -68 -4 0 19 -5 32 -12 32 -8 0 -13 -13 -13 -35z"/>
<path d="M8841 3994 c0 -11 3 -14 6 -6 3 7 2 16 -1 19 -3 4 -6 -2 -5 -13z"/>
<path d="M9062 3974 c-12 -8 -22 -24 -22 -35 0 -26 13 -24 25 4 8 18 17 22 54
21 39 -1 42 1 26 13 -25 17 -55 17 -83 -3z"/>
<path d="M9286 3974 c-21 -21 -20 -37 3 -58 27 -25 64 -17 75 16 17 49 -41 80
-78 42z"/>
<path d="M9078 3903 c6 -2 18 -2 25 0 6 3 1 5 -13 5 -14 0 -19 -2 -12 -5z"/>
<path d="M970 3301 c-15 -28 4 -69 35 -77 19 -5 35 1 62 22 22 16 50 28 72 29
65 4 71 5 71 15 0 13 -56 13 -81 0 -15 -8 -22 -6 -36 10 -24 28 -108 29 -123
1z"/>
<path d="M1516 2455 c-14 -13 -26 -27 -26 -31 0 -4 14 5 30 21 17 16 30 30 30
32 0 7 -9 2 -34 -22z"/>
<path d="M8666 1859 c-23 -18 -27 -27 -24 -67 7 -107 133 -107 145 1 5 39 2
46 -22 65 -35 28 -65 28 -99 1z"/>
<path d="M7627 1649 c-13 -15 -15 -24 -8 -37 9 -15 10 -15 11 -1 0 9 7 22 15
29 16 13 20 31 8 29 -5 0 -16 -9 -26 -20z"/>
<path d="M7161 1604 c-38 -31 -41 -78 -10 -118 28 -35 76 -35 118 0 48 40 41
102 -16 132 -33 18 -59 14 -92 -14z"/>
<path d="M2205 1396 c-16 -7 -43 -28 -59 -46 -38 -44 -33 -99 15 -144 18 -17
25 -21 15 -10 -9 12 -20 47 -23 77 -5 52 -4 58 25 86 56 57 131 28 159 -61
l11 -33 1 37 c1 29 -6 44 -33 72 -36 39 -61 44 -111 22z"/>
<path d="M4291 1334 c0 -11 3 -14 6 -6 3 7 2 16 -1 19 -3 4 -6 -2 -5 -13z"/>
<path d="M2751 1305 c-36 -41 -39 -67 -11 -113 41 -67 102 -68 139 -1 21 37
22 45 12 80 -23 76 -89 92 -140 34z"/>
<path d="M2415 1250 c-9 -28 -21 -48 -26 -44 -5 3 -9 -1 -9 -9 0 -17 -36 -50
-78 -70 -27 -13 -44 -14 -84 -7 -27 6 -54 8 -58 5 -5 -3 -10 0 -12 7 -2 6 -10
8 -17 4 -17 -11 13 -44 54 -61 36 -15 124 -4 160 19 38 25 72 77 89 135 19 63
19 71 7 71 -5 0 -17 -23 -26 -50z"/>
<path d="M4230 1292 c0 -13 48 -56 65 -58 16 -2 18 8 9 44 -5 17 -14 22 -40
22 -19 0 -34 -4 -34 -8z"/>
<path d="M4700 1248 c-25 -42 -25 -74 0 -115 24 -39 63 -52 99 -32 80 45 47
179 -44 179 -29 0 -39 -6 -55 -32z"/>
</g>
</svg>
